<mxfile host="app.diagrams.net" modified="2023-11-26T14:35:58.423Z" agent="Mozilla/5.0 (X11; Linux x86_64; rv:120.0) Gecko/20100101 Firefox/120.0" etag="QZUUPGRwTn_qEgMDvTVk" version="22.1.4" type="device">
  <diagram id="R2lEEEUBdFMjLlhIrx00" name="Page-1">
    <mxGraphModel dx="1233" dy="1776" grid="1" gridSize="10" guides="1" tooltips="1" connect="1" arrows="1" fold="1" page="1" pageScale="1" pageWidth="3300" pageHeight="4681" math="0" shadow="0" extFonts="Permanent Marker^https://fonts.googleapis.com/css?family=Permanent+Marker">
      <root>
        <mxCell id="0" />
        <mxCell id="1" parent="0" />
        <mxCell id="SL3OJ4g4mQe82jDkw0CZ-1" value="Personale" style="ellipse;shape=doubleEllipse;whiteSpace=wrap;html=1;" vertex="1" parent="1">
          <mxGeometry x="1110.51" y="1620" width="100" height="60" as="geometry" />
        </mxCell>
        <mxCell id="SL3OJ4g4mQe82jDkw0CZ-2" value="" style="endArrow=oval;html=1;rounded=0;exitX=0;exitY=0;exitDx=0;exitDy=0;endFill=0;entryX=0.5;entryY=1;entryDx=0;entryDy=0;" edge="1" parent="1" source="SL3OJ4g4mQe82jDkw0CZ-1" target="SL3OJ4g4mQe82jDkw0CZ-3">
          <mxGeometry width="50" height="50" relative="1" as="geometry">
            <mxPoint x="1065.1546609406726" y="1629.3967965644033" as="sourcePoint" />
            <mxPoint x="1100.51" y="1610" as="targetPoint" />
          </mxGeometry>
        </mxCell>
        <mxCell id="SL3OJ4g4mQe82jDkw0CZ-3" value="&lt;font style=&quot;font-size: 7px;&quot;&gt;Nome&lt;/font&gt;" style="text;html=1;strokeColor=none;fillColor=none;align=center;verticalAlign=middle;whiteSpace=wrap;rounded=0;rotation=-45;" vertex="1" parent="1">
          <mxGeometry x="1060" y="1580" width="60" height="30" as="geometry" />
        </mxCell>
        <mxCell id="SL3OJ4g4mQe82jDkw0CZ-4" value="" style="endArrow=oval;html=1;rounded=0;exitX=0.662;exitY=0.021;exitDx=0;exitDy=0;endFill=0;exitPerimeter=0;" edge="1" parent="1" source="SL3OJ4g4mQe82jDkw0CZ-1" target="SL3OJ4g4mQe82jDkw0CZ-5">
          <mxGeometry width="50" height="50" relative="1" as="geometry">
            <mxPoint x="1185.8653390593272" y="1619.9967965644037" as="sourcePoint" />
            <mxPoint x="1200" y="1561.21" as="targetPoint" />
          </mxGeometry>
        </mxCell>
        <mxCell id="SL3OJ4g4mQe82jDkw0CZ-5" value="&lt;span style=&quot;font-size: 7px;&quot;&gt;DDN&lt;br&gt;&lt;/span&gt;" style="text;html=1;strokeColor=none;fillColor=none;align=center;verticalAlign=middle;whiteSpace=wrap;rounded=0;rotation=30;" vertex="1" parent="1">
          <mxGeometry x="1170" y="1551.21" width="60" height="30" as="geometry" />
        </mxCell>
        <mxCell id="SL3OJ4g4mQe82jDkw0CZ-6" value="" style="endArrow=oval;html=1;rounded=0;exitX=1;exitY=0;exitDx=0;exitDy=0;endFill=0;entryX=0.5;entryY=1;entryDx=0;entryDy=0;" edge="1" parent="1" target="SL3OJ4g4mQe82jDkw0CZ-7">
          <mxGeometry width="50" height="50" relative="1" as="geometry">
            <mxPoint x="1195.8653390593272" y="1628.8967965644038" as="sourcePoint" />
            <mxPoint x="1225.51" y="1571.1100000000001" as="targetPoint" />
          </mxGeometry>
        </mxCell>
        <mxCell id="SL3OJ4g4mQe82jDkw0CZ-7" value="&lt;font style=&quot;font-size: 5px;&quot;&gt;Numero Telefono&lt;/font&gt;" style="text;html=1;strokeColor=none;fillColor=none;align=center;verticalAlign=middle;whiteSpace=wrap;rounded=0;rotation=30;" vertex="1" parent="1">
          <mxGeometry x="1200" y="1561.1100000000001" width="60" height="30" as="geometry" />
        </mxCell>
        <mxCell id="SL3OJ4g4mQe82jDkw0CZ-8" value="" style="endArrow=oval;html=1;rounded=0;exitX=0.97;exitY=0.327;exitDx=0;exitDy=0;endFill=0;exitPerimeter=0;" edge="1" parent="1" source="SL3OJ4g4mQe82jDkw0CZ-1" target="SL3OJ4g4mQe82jDkw0CZ-9">
          <mxGeometry width="50" height="50" relative="1" as="geometry">
            <mxPoint x="1256.02" y="1660.1100000000001" as="sourcePoint" />
            <mxPoint x="1240.51" y="1601.1100000000001" as="targetPoint" />
          </mxGeometry>
        </mxCell>
        <mxCell id="SL3OJ4g4mQe82jDkw0CZ-9" value="&lt;font style=&quot;font-size: 7px;&quot;&gt;Email&lt;/font&gt;" style="text;html=1;strokeColor=none;fillColor=none;align=center;verticalAlign=middle;whiteSpace=wrap;rounded=0;rotation=45;" vertex="1" parent="1">
          <mxGeometry x="1210.51" y="1591.1100000000001" width="60" height="30" as="geometry" />
        </mxCell>
        <mxCell id="SL3OJ4g4mQe82jDkw0CZ-10" value="" style="endArrow=oval;html=1;rounded=0;exitX=0.417;exitY=0;exitDx=0;exitDy=0;endFill=1;exitPerimeter=0;" edge="1" parent="1" target="SL3OJ4g4mQe82jDkw0CZ-11">
          <mxGeometry width="50" height="50" relative="1" as="geometry">
            <mxPoint x="1160" y="1620" as="sourcePoint" />
            <mxPoint x="1160" y="1550" as="targetPoint" />
          </mxGeometry>
        </mxCell>
        <mxCell id="SL3OJ4g4mQe82jDkw0CZ-11" value="&lt;font style=&quot;font-size: 7px;&quot;&gt;ID_Personale&lt;/font&gt;" style="text;html=1;strokeColor=none;fillColor=none;align=center;verticalAlign=middle;whiteSpace=wrap;rounded=0;" vertex="1" parent="1">
          <mxGeometry x="1130" y="1530" width="60" height="30" as="geometry" />
        </mxCell>
        <mxCell id="SL3OJ4g4mQe82jDkw0CZ-12" value="" style="endArrow=oval;html=1;rounded=0;exitX=0.348;exitY=0.021;exitDx=0;exitDy=0;endFill=0;entryX=0.5;entryY=1;entryDx=0;entryDy=0;exitPerimeter=0;" edge="1" parent="1" source="SL3OJ4g4mQe82jDkw0CZ-1" target="SL3OJ4g4mQe82jDkw0CZ-13">
          <mxGeometry width="50" height="50" relative="1" as="geometry">
            <mxPoint x="1156.02" y="1610" as="sourcePoint" />
            <mxPoint x="1131.02" y="1591" as="targetPoint" />
          </mxGeometry>
        </mxCell>
        <mxCell id="SL3OJ4g4mQe82jDkw0CZ-13" value="&lt;font style=&quot;font-size: 7px;&quot;&gt;Cognome&lt;/font&gt;" style="text;html=1;strokeColor=none;fillColor=none;align=center;verticalAlign=middle;whiteSpace=wrap;rounded=0;rotation=-30;" vertex="1" parent="1">
          <mxGeometry x="1090.51" y="1561" width="60" height="30" as="geometry" />
        </mxCell>
        <mxCell id="SL3OJ4g4mQe82jDkw0CZ-33" style="edgeStyle=orthogonalEdgeStyle;rounded=0;orthogonalLoop=1;jettySize=auto;html=1;entryX=0.5;entryY=1;entryDx=0;entryDy=0;" edge="1" parent="1" source="SL3OJ4g4mQe82jDkw0CZ-14" target="SL3OJ4g4mQe82jDkw0CZ-1">
          <mxGeometry relative="1" as="geometry">
            <Array as="points">
              <mxPoint x="1290" y="1660" />
              <mxPoint x="1290" y="1700" />
              <mxPoint x="1161" y="1700" />
            </Array>
          </mxGeometry>
        </mxCell>
        <mxCell id="SL3OJ4g4mQe82jDkw0CZ-14" value="Autisti" style="rounded=0;whiteSpace=wrap;html=1;" vertex="1" parent="1">
          <mxGeometry x="1330" y="1630" width="120" height="60" as="geometry" />
        </mxCell>
        <mxCell id="SL3OJ4g4mQe82jDkw0CZ-32" style="edgeStyle=orthogonalEdgeStyle;rounded=0;orthogonalLoop=1;jettySize=auto;html=1;entryX=1;entryY=0.5;entryDx=0;entryDy=0;" edge="1" parent="1" source="SL3OJ4g4mQe82jDkw0CZ-17" target="SL3OJ4g4mQe82jDkw0CZ-1">
          <mxGeometry relative="1" as="geometry" />
        </mxCell>
        <mxCell id="SL3OJ4g4mQe82jDkw0CZ-17" value="Manutentori" style="rounded=0;whiteSpace=wrap;html=1;" vertex="1" parent="1">
          <mxGeometry x="1330" y="1470" width="120" height="60" as="geometry" />
        </mxCell>
        <mxCell id="SL3OJ4g4mQe82jDkw0CZ-18" value="" style="endArrow=oval;html=1;rounded=0;exitX=0.417;exitY=0;exitDx=0;exitDy=0;endFill=1;exitPerimeter=0;" edge="1" parent="1" target="SL3OJ4g4mQe82jDkw0CZ-19">
          <mxGeometry width="50" height="50" relative="1" as="geometry">
            <mxPoint x="1340" y="1470" as="sourcePoint" />
            <mxPoint x="1340" y="1400" as="targetPoint" />
          </mxGeometry>
        </mxCell>
        <mxCell id="SL3OJ4g4mQe82jDkw0CZ-19" value="&lt;font style=&quot;font-size: 7px;&quot;&gt;ID_Manutentore&lt;/font&gt;" style="text;html=1;strokeColor=none;fillColor=none;align=center;verticalAlign=middle;whiteSpace=wrap;rounded=0;" vertex="1" parent="1">
          <mxGeometry x="1310" y="1380" width="60" height="30" as="geometry" />
        </mxCell>
        <mxCell id="SL3OJ4g4mQe82jDkw0CZ-20" value="" style="endArrow=oval;html=1;rounded=0;exitX=0.5;exitY=0;exitDx=0;exitDy=0;endFill=0;" edge="1" parent="1" target="SL3OJ4g4mQe82jDkw0CZ-21">
          <mxGeometry width="50" height="50" relative="1" as="geometry">
            <mxPoint x="1360" y="1470" as="sourcePoint" />
            <mxPoint x="1360" y="1420" as="targetPoint" />
          </mxGeometry>
        </mxCell>
        <mxCell id="SL3OJ4g4mQe82jDkw0CZ-21" value="&lt;span style=&quot;font-size: 7px;&quot;&gt;Qualifica&lt;br&gt;&lt;/span&gt;" style="text;html=1;strokeColor=none;fillColor=none;align=center;verticalAlign=middle;whiteSpace=wrap;rounded=0;" vertex="1" parent="1">
          <mxGeometry x="1330" y="1410" width="60" height="30" as="geometry" />
        </mxCell>
        <mxCell id="SL3OJ4g4mQe82jDkw0CZ-102" style="edgeStyle=orthogonalEdgeStyle;rounded=0;orthogonalLoop=1;jettySize=auto;html=1;entryX=0;entryY=1;entryDx=0;entryDy=0;" edge="1" parent="1" source="SL3OJ4g4mQe82jDkw0CZ-22" target="SL3OJ4g4mQe82jDkw0CZ-1">
          <mxGeometry relative="1" as="geometry">
            <Array as="points">
              <mxPoint x="1190" y="1730" />
              <mxPoint x="1125" y="1730" />
            </Array>
          </mxGeometry>
        </mxCell>
        <mxCell id="SL3OJ4g4mQe82jDkw0CZ-22" value="Addetti Marketing" style="rounded=0;whiteSpace=wrap;html=1;" vertex="1" parent="1">
          <mxGeometry x="1130" y="1840" width="120" height="60" as="geometry" />
        </mxCell>
        <mxCell id="SL3OJ4g4mQe82jDkw0CZ-23" value="" style="endArrow=oval;html=1;rounded=0;exitX=0.25;exitY=0;exitDx=0;exitDy=0;endFill=1;" edge="1" parent="1" source="SL3OJ4g4mQe82jDkw0CZ-22" target="SL3OJ4g4mQe82jDkw0CZ-24">
          <mxGeometry width="50" height="50" relative="1" as="geometry">
            <mxPoint x="1100" y="1840" as="sourcePoint" />
            <mxPoint x="1100" y="1770" as="targetPoint" />
          </mxGeometry>
        </mxCell>
        <mxCell id="SL3OJ4g4mQe82jDkw0CZ-24" value="&lt;font style=&quot;font-size: 7px;&quot;&gt;ID_Addetto&lt;br&gt;&lt;/font&gt;" style="text;html=1;strokeColor=none;fillColor=none;align=center;verticalAlign=middle;whiteSpace=wrap;rounded=0;" vertex="1" parent="1">
          <mxGeometry x="1130" y="1750" width="60" height="30" as="geometry" />
        </mxCell>
        <mxCell id="SL3OJ4g4mQe82jDkw0CZ-26" value="" style="endArrow=oval;html=1;rounded=0;exitX=0.417;exitY=0;exitDx=0;exitDy=0;endFill=1;exitPerimeter=0;" edge="1" parent="1" target="SL3OJ4g4mQe82jDkw0CZ-27">
          <mxGeometry width="50" height="50" relative="1" as="geometry">
            <mxPoint x="1350" y="1630" as="sourcePoint" />
            <mxPoint x="1350" y="1560" as="targetPoint" />
          </mxGeometry>
        </mxCell>
        <mxCell id="SL3OJ4g4mQe82jDkw0CZ-27" value="&lt;span style=&quot;font-size: 7px;&quot;&gt;ID_Autista&lt;/span&gt;" style="text;html=1;strokeColor=none;fillColor=none;align=center;verticalAlign=middle;whiteSpace=wrap;rounded=0;" vertex="1" parent="1">
          <mxGeometry x="1320" y="1540" width="60" height="30" as="geometry" />
        </mxCell>
        <mxCell id="SL3OJ4g4mQe82jDkw0CZ-28" value="" style="endArrow=oval;html=1;rounded=0;exitX=0.5;exitY=0;exitDx=0;exitDy=0;endFill=0;" edge="1" parent="1" target="SL3OJ4g4mQe82jDkw0CZ-29">
          <mxGeometry width="50" height="50" relative="1" as="geometry">
            <mxPoint x="1380" y="1630" as="sourcePoint" />
            <mxPoint x="1380" y="1580" as="targetPoint" />
          </mxGeometry>
        </mxCell>
        <mxCell id="SL3OJ4g4mQe82jDkw0CZ-29" value="&lt;font style=&quot;font-size: 7px;&quot;&gt;Numero patente&lt;/font&gt;" style="text;html=1;strokeColor=none;fillColor=none;align=center;verticalAlign=middle;whiteSpace=wrap;rounded=0;" vertex="1" parent="1">
          <mxGeometry x="1350" y="1570" width="60" height="30" as="geometry" />
        </mxCell>
        <mxCell id="SL3OJ4g4mQe82jDkw0CZ-30" value="" style="shape=waypoint;sketch=0;fillStyle=solid;size=6;pointerEvents=1;points=[];fillColor=none;resizable=0;rotatable=0;perimeter=centerPerimeter;snapToPoint=1;strokeColor=#8F8F8F;" vertex="1" parent="1">
          <mxGeometry x="1370" y="1590" width="20" height="20" as="geometry" />
        </mxCell>
        <mxCell id="SL3OJ4g4mQe82jDkw0CZ-36" value="&lt;font style=&quot;font-size: 6px;&quot;&gt;Comunicare Guasto&lt;/font&gt;" style="shape=rhombus;perimeter=rhombusPerimeter;whiteSpace=wrap;html=1;align=center;" vertex="1" parent="1">
          <mxGeometry x="1490.01" y="1561.1100000000001" width="70" height="40" as="geometry" />
        </mxCell>
        <mxCell id="SL3OJ4g4mQe82jDkw0CZ-37" value="" style="resizable=0;html=1;whiteSpace=wrap;align=right;verticalAlign=bottom;" connectable="0" vertex="1" parent="1">
          <mxGeometry x="1569.5200000000004" y="1581.1100000000001" as="geometry" />
        </mxCell>
        <mxCell id="SL3OJ4g4mQe82jDkw0CZ-38" value="" style="resizable=0;html=1;whiteSpace=wrap;align=right;verticalAlign=bottom;" connectable="0" vertex="1" parent="1">
          <mxGeometry x="1490.0001576883378" y="1581.1100000000001" as="geometry" />
        </mxCell>
        <mxCell id="SL3OJ4g4mQe82jDkw0CZ-39" value="" style="endArrow=none;html=1;rounded=0;exitX=1;exitY=0.5;exitDx=0;exitDy=0;entryX=0.5;entryY=0;entryDx=0;entryDy=0;" edge="1" parent="1" source="SL3OJ4g4mQe82jDkw0CZ-17" target="SL3OJ4g4mQe82jDkw0CZ-36">
          <mxGeometry relative="1" as="geometry">
            <mxPoint x="1540" y="1650" as="sourcePoint" />
            <mxPoint x="1700" y="1650" as="targetPoint" />
            <Array as="points">
              <mxPoint x="1525" y="1500" />
            </Array>
          </mxGeometry>
        </mxCell>
        <mxCell id="SL3OJ4g4mQe82jDkw0CZ-40" value="&lt;div&gt;1,1&lt;/div&gt;" style="resizable=0;html=1;whiteSpace=wrap;align=right;verticalAlign=bottom;" connectable="0" vertex="1" parent="SL3OJ4g4mQe82jDkw0CZ-39">
          <mxGeometry x="1" relative="1" as="geometry" />
        </mxCell>
        <mxCell id="SL3OJ4g4mQe82jDkw0CZ-41" value="" style="endArrow=none;html=1;rounded=0;exitX=1;exitY=0.5;exitDx=0;exitDy=0;entryX=0.5;entryY=1;entryDx=0;entryDy=0;" edge="1" parent="1" source="SL3OJ4g4mQe82jDkw0CZ-14" target="SL3OJ4g4mQe82jDkw0CZ-36">
          <mxGeometry relative="1" as="geometry">
            <mxPoint x="1460" y="1660" as="sourcePoint" />
            <mxPoint x="1620" y="1670" as="targetPoint" />
            <Array as="points">
              <mxPoint x="1525" y="1660" />
            </Array>
          </mxGeometry>
        </mxCell>
        <mxCell id="SL3OJ4g4mQe82jDkw0CZ-42" value="1,1" style="resizable=0;html=1;whiteSpace=wrap;align=right;verticalAlign=bottom;" connectable="0" vertex="1" parent="SL3OJ4g4mQe82jDkw0CZ-41">
          <mxGeometry x="1" relative="1" as="geometry">
            <mxPoint y="19" as="offset" />
          </mxGeometry>
        </mxCell>
        <mxCell id="SL3OJ4g4mQe82jDkw0CZ-43" value="Patente" style="rounded=0;whiteSpace=wrap;html=1;" vertex="1" parent="1">
          <mxGeometry x="1575" y="1470" width="120" height="60" as="geometry" />
        </mxCell>
        <mxCell id="SL3OJ4g4mQe82jDkw0CZ-44" value="" style="endArrow=oval;html=1;rounded=0;exitX=0.417;exitY=0;exitDx=0;exitDy=0;endFill=1;exitPerimeter=0;" edge="1" parent="1" target="SL3OJ4g4mQe82jDkw0CZ-45">
          <mxGeometry width="50" height="50" relative="1" as="geometry">
            <mxPoint x="1590.01" y="1470" as="sourcePoint" />
            <mxPoint x="1590.01" y="1400" as="targetPoint" />
          </mxGeometry>
        </mxCell>
        <mxCell id="SL3OJ4g4mQe82jDkw0CZ-45" value="&lt;font style=&quot;font-size: 7px;&quot;&gt;Numero patente&lt;/font&gt;" style="text;html=1;strokeColor=none;fillColor=none;align=center;verticalAlign=middle;whiteSpace=wrap;rounded=0;" vertex="1" parent="1">
          <mxGeometry x="1560.01" y="1380" width="60" height="30" as="geometry" />
        </mxCell>
        <mxCell id="SL3OJ4g4mQe82jDkw0CZ-46" value="" style="endArrow=oval;html=1;rounded=0;exitX=0.5;exitY=0;exitDx=0;exitDy=0;endFill=0;fontColor=#FFFFFF;strokeColor=#000000;labelBackgroundColor=#757575;" edge="1" parent="1">
          <mxGeometry width="50" height="50" relative="1" as="geometry">
            <mxPoint x="1620.01" y="1470" as="sourcePoint" />
            <mxPoint x="1620.01" y="1440" as="targetPoint" />
          </mxGeometry>
        </mxCell>
        <mxCell id="SL3OJ4g4mQe82jDkw0CZ-47" value="&lt;font style=&quot;font-size: 7px;&quot;&gt;DDS&lt;/font&gt;" style="text;html=1;strokeColor=none;fillColor=none;align=center;verticalAlign=middle;whiteSpace=wrap;rounded=0;" vertex="1" parent="1">
          <mxGeometry x="1590" y="1410" width="60" height="30" as="geometry" />
        </mxCell>
        <mxCell id="SL3OJ4g4mQe82jDkw0CZ-48" value="" style="endArrow=oval;html=1;rounded=0;exitX=0.417;exitY=0;exitDx=0;exitDy=0;endFill=0;exitPerimeter=0;" edge="1" parent="1" target="SL3OJ4g4mQe82jDkw0CZ-49">
          <mxGeometry width="50" height="50" relative="1" as="geometry">
            <mxPoint x="1650.01" y="1470" as="sourcePoint" />
            <mxPoint x="1650.01" y="1400" as="targetPoint" />
          </mxGeometry>
        </mxCell>
        <mxCell id="SL3OJ4g4mQe82jDkw0CZ-49" value="&lt;font style=&quot;font-size: 7px;&quot;&gt;Categoria&lt;/font&gt;" style="text;html=1;strokeColor=none;fillColor=none;align=center;verticalAlign=middle;whiteSpace=wrap;rounded=0;" vertex="1" parent="1">
          <mxGeometry x="1620.01" y="1380" width="60" height="30" as="geometry" />
        </mxCell>
        <mxCell id="SL3OJ4g4mQe82jDkw0CZ-50" value="Possedere" style="shape=rhombus;perimeter=rhombusPerimeter;whiteSpace=wrap;html=1;align=center;" vertex="1" parent="1">
          <mxGeometry x="1600" y="1590" width="70" height="40" as="geometry" />
        </mxCell>
        <mxCell id="SL3OJ4g4mQe82jDkw0CZ-51" value="" style="endArrow=none;html=1;rounded=0;exitX=1;exitY=0.75;exitDx=0;exitDy=0;entryX=0.5;entryY=1;entryDx=0;entryDy=0;" edge="1" parent="1" source="SL3OJ4g4mQe82jDkw0CZ-14" target="SL3OJ4g4mQe82jDkw0CZ-50">
          <mxGeometry relative="1" as="geometry">
            <mxPoint x="1580" y="1740" as="sourcePoint" />
            <mxPoint x="1740" y="1740" as="targetPoint" />
            <Array as="points">
              <mxPoint x="1635" y="1675" />
            </Array>
          </mxGeometry>
        </mxCell>
        <mxCell id="SL3OJ4g4mQe82jDkw0CZ-52" value="1,1" style="resizable=0;html=1;whiteSpace=wrap;align=right;verticalAlign=bottom;" connectable="0" vertex="1" parent="SL3OJ4g4mQe82jDkw0CZ-51">
          <mxGeometry x="1" relative="1" as="geometry">
            <mxPoint y="20" as="offset" />
          </mxGeometry>
        </mxCell>
        <mxCell id="SL3OJ4g4mQe82jDkw0CZ-53" value="" style="endArrow=none;html=1;rounded=0;exitX=0.5;exitY=1;exitDx=0;exitDy=0;entryX=0.5;entryY=0;entryDx=0;entryDy=0;" edge="1" parent="1" source="SL3OJ4g4mQe82jDkw0CZ-43" target="SL3OJ4g4mQe82jDkw0CZ-50">
          <mxGeometry relative="1" as="geometry">
            <mxPoint x="1570" y="1600" as="sourcePoint" />
            <mxPoint x="1730" y="1600" as="targetPoint" />
          </mxGeometry>
        </mxCell>
        <mxCell id="SL3OJ4g4mQe82jDkw0CZ-54" value="1,1" style="resizable=0;html=1;whiteSpace=wrap;align=right;verticalAlign=bottom;" connectable="0" vertex="1" parent="SL3OJ4g4mQe82jDkw0CZ-53">
          <mxGeometry x="1" relative="1" as="geometry" />
        </mxCell>
        <mxCell id="SL3OJ4g4mQe82jDkw0CZ-66" value="Offerte" style="rounded=0;whiteSpace=wrap;html=1;" vertex="1" parent="1">
          <mxGeometry x="1130" y="2020" width="120" height="60" as="geometry" />
        </mxCell>
        <mxCell id="SL3OJ4g4mQe82jDkw0CZ-67" value="" style="endArrow=oval;html=1;rounded=0;exitX=0.417;exitY=0;exitDx=0;exitDy=0;endFill=1;exitPerimeter=0;" edge="1" target="SL3OJ4g4mQe82jDkw0CZ-68" parent="1">
          <mxGeometry width="50" height="50" relative="1" as="geometry">
            <mxPoint x="1140" y="2020" as="sourcePoint" />
            <mxPoint x="1140" y="1950" as="targetPoint" />
          </mxGeometry>
        </mxCell>
        <mxCell id="SL3OJ4g4mQe82jDkw0CZ-68" value="&lt;font style=&quot;font-size: 7px;&quot;&gt;ID_Offerta&lt;br&gt;&lt;/font&gt;" style="text;html=1;strokeColor=none;fillColor=none;align=center;verticalAlign=middle;whiteSpace=wrap;rounded=0;" vertex="1" parent="1">
          <mxGeometry x="1110" y="1930" width="60" height="30" as="geometry" />
        </mxCell>
        <mxCell id="SL3OJ4g4mQe82jDkw0CZ-69" value="" style="endArrow=oval;html=1;rounded=0;exitX=0.5;exitY=0;exitDx=0;exitDy=0;endFill=0;fontColor=#FFFFFF;strokeColor=#000000;labelBackgroundColor=#757575;" edge="1" target="SL3OJ4g4mQe82jDkw0CZ-70" parent="1">
          <mxGeometry width="50" height="50" relative="1" as="geometry">
            <mxPoint x="1160" y="2020" as="sourcePoint" />
            <mxPoint x="1160" y="1970" as="targetPoint" />
          </mxGeometry>
        </mxCell>
        <mxCell id="SL3OJ4g4mQe82jDkw0CZ-70" value="&lt;font style=&quot;font-size: 7px;&quot;&gt;Promo Code&lt;br&gt;&lt;/font&gt;" style="text;html=1;strokeColor=none;fillColor=none;align=center;verticalAlign=middle;whiteSpace=wrap;rounded=0;" vertex="1" parent="1">
          <mxGeometry x="1130" y="1960" width="60" height="30" as="geometry" />
        </mxCell>
        <mxCell id="SL3OJ4g4mQe82jDkw0CZ-71" value="" style="endArrow=oval;html=1;rounded=0;exitX=0.417;exitY=0;exitDx=0;exitDy=0;endFill=0;exitPerimeter=0;" edge="1" target="SL3OJ4g4mQe82jDkw0CZ-72" parent="1">
          <mxGeometry width="50" height="50" relative="1" as="geometry">
            <mxPoint x="1180" y="2020" as="sourcePoint" />
            <mxPoint x="1180" y="1950" as="targetPoint" />
          </mxGeometry>
        </mxCell>
        <mxCell id="SL3OJ4g4mQe82jDkw0CZ-72" value="&lt;font style=&quot;font-size: 7px;&quot;&gt;Info Offerta&lt;/font&gt;" style="text;html=1;strokeColor=none;fillColor=none;align=center;verticalAlign=middle;whiteSpace=wrap;rounded=0;" vertex="1" parent="1">
          <mxGeometry x="1150" y="1930" width="60" height="30" as="geometry" />
        </mxCell>
        <mxCell id="SL3OJ4g4mQe82jDkw0CZ-73" value="" style="endArrow=oval;html=1;rounded=0;exitX=0.5;exitY=0;exitDx=0;exitDy=0;endFill=1;fontColor=#FFFFFF;strokeColor=#000000;labelBackgroundColor=#757575;" edge="1" target="SL3OJ4g4mQe82jDkw0CZ-74" parent="1">
          <mxGeometry width="50" height="50" relative="1" as="geometry">
            <mxPoint x="1200" y="2021.1100000000001" as="sourcePoint" />
            <mxPoint x="1200" y="1971.1100000000001" as="targetPoint" />
          </mxGeometry>
        </mxCell>
        <mxCell id="SL3OJ4g4mQe82jDkw0CZ-74" value="&lt;font style=&quot;font-size: 7px;&quot;&gt;ID_Utente&lt;/font&gt;" style="text;html=1;strokeColor=none;fillColor=none;align=center;verticalAlign=middle;whiteSpace=wrap;rounded=0;" vertex="1" parent="1">
          <mxGeometry x="1170" y="1961.1100000000001" width="60" height="30" as="geometry" />
        </mxCell>
        <mxCell id="SL3OJ4g4mQe82jDkw0CZ-75" value="" style="shape=waypoint;sketch=0;fillStyle=solid;size=6;pointerEvents=1;points=[];fillColor=none;resizable=0;rotatable=0;perimeter=centerPerimeter;snapToPoint=1;strokeColor=#8F8F8F;" vertex="1" parent="1">
          <mxGeometry x="1190" y="1981.1100000000001" width="20" height="20" as="geometry" />
        </mxCell>
        <mxCell id="SL3OJ4g4mQe82jDkw0CZ-77" value="" style="resizable=0;html=1;whiteSpace=wrap;align=right;verticalAlign=bottom;" connectable="0" vertex="1" parent="1">
          <mxGeometry x="1184.9999999999998" y="2050" as="geometry" />
        </mxCell>
        <mxCell id="SL3OJ4g4mQe82jDkw0CZ-78" value="Aggiungere" style="shape=rhombus;perimeter=rhombusPerimeter;whiteSpace=wrap;html=1;align=center;" vertex="1" parent="1">
          <mxGeometry x="1270.51" y="1930" width="70" height="40" as="geometry" />
        </mxCell>
        <mxCell id="SL3OJ4g4mQe82jDkw0CZ-104" value="Turni" style="rounded=0;whiteSpace=wrap;html=1;" vertex="1" parent="1">
          <mxGeometry x="1730" y="1470" width="120" height="60" as="geometry" />
        </mxCell>
        <mxCell id="SL3OJ4g4mQe82jDkw0CZ-105" value="" style="endArrow=oval;html=1;rounded=0;exitX=0.417;exitY=0;exitDx=0;exitDy=0;endFill=1;exitPerimeter=0;" edge="1" parent="1" target="SL3OJ4g4mQe82jDkw0CZ-106">
          <mxGeometry width="50" height="50" relative="1" as="geometry">
            <mxPoint x="1750" y="1470" as="sourcePoint" />
            <mxPoint x="1750" y="1400" as="targetPoint" />
          </mxGeometry>
        </mxCell>
        <mxCell id="SL3OJ4g4mQe82jDkw0CZ-106" value="&lt;div&gt;&lt;span style=&quot;font-size: 7px;&quot;&gt;ID_Turno&lt;/span&gt;&lt;/div&gt;" style="text;html=1;strokeColor=none;fillColor=none;align=center;verticalAlign=middle;whiteSpace=wrap;rounded=0;" vertex="1" parent="1">
          <mxGeometry x="1720" y="1380" width="60" height="30" as="geometry" />
        </mxCell>
        <mxCell id="SL3OJ4g4mQe82jDkw0CZ-107" value="" style="endArrow=oval;html=1;rounded=0;exitDx=0;exitDy=0;endFill=1;fontColor=#FFFFFF;strokeColor=#000000;labelBackgroundColor=#757575;" edge="1" parent="1">
          <mxGeometry width="50" height="50" relative="1" as="geometry">
            <mxPoint x="1870" y="1440" as="sourcePoint" />
            <mxPoint x="1870" y="1440" as="targetPoint" />
          </mxGeometry>
        </mxCell>
        <mxCell id="SL3OJ4g4mQe82jDkw0CZ-108" value="" style="endArrow=oval;html=1;rounded=0;exitX=0.5;exitY=0;exitDx=0;exitDy=0;endFill=0;" edge="1" parent="1" target="SL3OJ4g4mQe82jDkw0CZ-109">
          <mxGeometry width="50" height="50" relative="1" as="geometry">
            <mxPoint x="1770" y="1470" as="sourcePoint" />
            <mxPoint x="1770" y="1420" as="targetPoint" />
          </mxGeometry>
        </mxCell>
        <mxCell id="SL3OJ4g4mQe82jDkw0CZ-109" value="&lt;font style=&quot;font-size: 7px;&quot;&gt;Orario inizio&lt;/font&gt;" style="text;html=1;strokeColor=none;fillColor=none;align=center;verticalAlign=middle;whiteSpace=wrap;rounded=0;" vertex="1" parent="1">
          <mxGeometry x="1740" y="1410" width="60" height="30" as="geometry" />
        </mxCell>
        <mxCell id="SL3OJ4g4mQe82jDkw0CZ-110" value="" style="endArrow=oval;html=1;rounded=0;exitX=0.417;exitY=0;exitDx=0;exitDy=0;endFill=0;exitPerimeter=0;" edge="1" parent="1" target="SL3OJ4g4mQe82jDkw0CZ-111">
          <mxGeometry width="50" height="50" relative="1" as="geometry">
            <mxPoint x="1790" y="1470" as="sourcePoint" />
            <mxPoint x="1790" y="1400" as="targetPoint" />
          </mxGeometry>
        </mxCell>
        <mxCell id="SL3OJ4g4mQe82jDkw0CZ-111" value="&lt;div style=&quot;font-size: 7px;&quot;&gt;Orario fine&lt;/div&gt;" style="text;html=1;strokeColor=none;fillColor=none;align=center;verticalAlign=middle;whiteSpace=wrap;rounded=0;" vertex="1" parent="1">
          <mxGeometry x="1760" y="1380" width="60" height="30" as="geometry" />
        </mxCell>
        <mxCell id="SL3OJ4g4mQe82jDkw0CZ-112" value="" style="endArrow=oval;html=1;rounded=0;exitX=0.5;exitY=0;exitDx=0;exitDy=0;endFill=1;fontColor=#FFFFFF;strokeColor=#000000;labelBackgroundColor=#757575;" edge="1" parent="1" target="SL3OJ4g4mQe82jDkw0CZ-113">
          <mxGeometry width="50" height="50" relative="1" as="geometry">
            <mxPoint x="1810" y="1470" as="sourcePoint" />
            <mxPoint x="1810" y="1420" as="targetPoint" />
          </mxGeometry>
        </mxCell>
        <mxCell id="SL3OJ4g4mQe82jDkw0CZ-113" value="&lt;font style=&quot;font-size: 7px;&quot;&gt;ID_&lt;font style=&quot;font-size: 7px;&quot;&gt;Autista&lt;/font&gt;&lt;/font&gt;" style="text;html=1;strokeColor=none;fillColor=none;align=center;verticalAlign=middle;whiteSpace=wrap;rounded=0;" vertex="1" parent="1">
          <mxGeometry x="1780" y="1410" width="60" height="30" as="geometry" />
        </mxCell>
        <mxCell id="SL3OJ4g4mQe82jDkw0CZ-114" value="" style="shape=waypoint;sketch=0;fillStyle=solid;size=6;pointerEvents=1;points=[];fillColor=none;resizable=0;rotatable=0;perimeter=centerPerimeter;snapToPoint=1;strokeColor=#8F8F8F;" vertex="1" parent="1">
          <mxGeometry x="1800" y="1430" width="20" height="20" as="geometry" />
        </mxCell>
        <mxCell id="SL3OJ4g4mQe82jDkw0CZ-115" value="" style="endArrow=none;html=1;rounded=0;exitX=0.75;exitY=1;exitDx=0;exitDy=0;entryX=0.5;entryY=1;entryDx=0;entryDy=0;" edge="1" parent="1" source="SL3OJ4g4mQe82jDkw0CZ-14" target="SL3OJ4g4mQe82jDkw0CZ-117">
          <mxGeometry relative="1" as="geometry">
            <mxPoint x="1860" y="1690" as="sourcePoint" />
            <mxPoint x="2020" y="1690" as="targetPoint" />
            <Array as="points">
              <mxPoint x="1420" y="1710" />
              <mxPoint x="1790" y="1710" />
            </Array>
          </mxGeometry>
        </mxCell>
        <mxCell id="SL3OJ4g4mQe82jDkw0CZ-116" value="1" style="resizable=0;html=1;whiteSpace=wrap;align=right;verticalAlign=bottom;" connectable="0" vertex="1" parent="SL3OJ4g4mQe82jDkw0CZ-115">
          <mxGeometry x="1" relative="1" as="geometry" />
        </mxCell>
        <mxCell id="SL3OJ4g4mQe82jDkw0CZ-117" value="Avere" style="shape=rhombus;perimeter=rhombusPerimeter;whiteSpace=wrap;html=1;align=center;" vertex="1" parent="1">
          <mxGeometry x="1755" y="1590" width="70" height="40" as="geometry" />
        </mxCell>
        <mxCell id="SL3OJ4g4mQe82jDkw0CZ-118" value="1,1" style="resizable=0;html=1;whiteSpace=wrap;align=right;verticalAlign=bottom;" connectable="0" vertex="1" parent="1">
          <mxGeometry x="1790" y="1650" as="geometry" />
        </mxCell>
        <mxCell id="SL3OJ4g4mQe82jDkw0CZ-119" value="" style="endArrow=none;html=1;rounded=0;exitX=0.5;exitY=1;exitDx=0;exitDy=0;" edge="1" parent="1" source="SL3OJ4g4mQe82jDkw0CZ-104" target="SL3OJ4g4mQe82jDkw0CZ-117">
          <mxGeometry relative="1" as="geometry">
            <mxPoint x="1430" y="1700" as="sourcePoint" />
            <mxPoint x="2030" y="1700" as="targetPoint" />
          </mxGeometry>
        </mxCell>
        <mxCell id="SL3OJ4g4mQe82jDkw0CZ-120" value="1,1" style="resizable=0;html=1;whiteSpace=wrap;align=right;verticalAlign=bottom;" connectable="0" vertex="1" parent="SL3OJ4g4mQe82jDkw0CZ-119">
          <mxGeometry x="1" relative="1" as="geometry" />
        </mxCell>
        <mxCell id="SL3OJ4g4mQe82jDkw0CZ-122" value="Veicoli" style="rounded=0;whiteSpace=wrap;html=1;" vertex="1" parent="1">
          <mxGeometry x="1880.1799999999998" y="1470" width="120" height="60" as="geometry" />
        </mxCell>
        <mxCell id="SL3OJ4g4mQe82jDkw0CZ-123" value="" style="endArrow=oval;html=1;rounded=0;exitX=0.5;exitY=0;exitDx=0;exitDy=0;endFill=0;" edge="1" parent="1">
          <mxGeometry width="50" height="50" relative="1" as="geometry">
            <mxPoint x="1910.1799999999998" y="1470" as="sourcePoint" />
            <mxPoint x="1910.1799999999998" y="1440" as="targetPoint" />
          </mxGeometry>
        </mxCell>
        <mxCell id="SL3OJ4g4mQe82jDkw0CZ-124" value="&lt;font style=&quot;font-size: 7px;&quot;&gt;Marca&lt;/font&gt;" style="text;html=1;strokeColor=none;fillColor=none;align=center;verticalAlign=middle;whiteSpace=wrap;rounded=0;" vertex="1" parent="1">
          <mxGeometry x="1880.1799999999998" y="1410" width="60" height="30" as="geometry" />
        </mxCell>
        <mxCell id="SL3OJ4g4mQe82jDkw0CZ-125" value="" style="endArrow=oval;html=1;rounded=0;exitX=0.417;exitY=0;exitDx=0;exitDy=0;endFill=0;exitPerimeter=0;" edge="1" parent="1" source="SL3OJ4g4mQe82jDkw0CZ-122" target="SL3OJ4g4mQe82jDkw0CZ-126">
          <mxGeometry width="50" height="50" relative="1" as="geometry">
            <mxPoint x="1930.1799999999998" y="1450" as="sourcePoint" />
            <mxPoint x="1930.1799999999998" y="1400" as="targetPoint" />
          </mxGeometry>
        </mxCell>
        <mxCell id="SL3OJ4g4mQe82jDkw0CZ-126" value="&lt;font style=&quot;font-size: 7px;&quot;&gt;Modello&lt;/font&gt;" style="text;html=1;strokeColor=none;fillColor=none;align=center;verticalAlign=middle;whiteSpace=wrap;rounded=0;" vertex="1" parent="1">
          <mxGeometry x="1900.1799999999998" y="1380" width="60" height="30" as="geometry" />
        </mxCell>
        <mxCell id="SL3OJ4g4mQe82jDkw0CZ-127" value="" style="endArrow=oval;html=1;rounded=0;exitX=0.5;exitY=0;exitDx=0;exitDy=0;endFill=1;fontColor=#FFFFFF;strokeColor=#000000;labelBackgroundColor=#757575;" edge="1" parent="1" target="SL3OJ4g4mQe82jDkw0CZ-128">
          <mxGeometry width="50" height="50" relative="1" as="geometry">
            <mxPoint x="1950.1799999999998" y="1470" as="sourcePoint" />
            <mxPoint x="1950.1799999999998" y="1420" as="targetPoint" />
          </mxGeometry>
        </mxCell>
        <mxCell id="SL3OJ4g4mQe82jDkw0CZ-128" value="&lt;font style=&quot;font-size: 7px;&quot;&gt;ID_&lt;font style=&quot;font-size: 7px;&quot;&gt;Autista&lt;/font&gt;&lt;/font&gt;" style="text;html=1;strokeColor=none;fillColor=none;align=center;verticalAlign=middle;whiteSpace=wrap;rounded=0;" vertex="1" parent="1">
          <mxGeometry x="1920.1799999999998" y="1410" width="60" height="30" as="geometry" />
        </mxCell>
        <mxCell id="SL3OJ4g4mQe82jDkw0CZ-129" value="" style="endArrow=oval;html=1;rounded=0;exitX=0.417;exitY=0;exitDx=0;exitDy=0;endFill=1;exitPerimeter=0;" edge="1" parent="1" target="SL3OJ4g4mQe82jDkw0CZ-130">
          <mxGeometry width="50" height="50" relative="1" as="geometry">
            <mxPoint x="1890.1799999999998" y="1470" as="sourcePoint" />
            <mxPoint x="1890.1799999999998" y="1400" as="targetPoint" />
          </mxGeometry>
        </mxCell>
        <mxCell id="SL3OJ4g4mQe82jDkw0CZ-130" value="&lt;div style=&quot;font-size: 7px;&quot;&gt;Targa&lt;/div&gt;" style="text;html=1;strokeColor=none;fillColor=none;align=center;verticalAlign=middle;whiteSpace=wrap;rounded=0;" vertex="1" parent="1">
          <mxGeometry x="1860.1799999999998" y="1380" width="60" height="30" as="geometry" />
        </mxCell>
        <mxCell id="SL3OJ4g4mQe82jDkw0CZ-131" value="" style="shape=waypoint;sketch=0;fillStyle=solid;size=6;pointerEvents=1;points=[];fillColor=none;resizable=0;rotatable=0;perimeter=centerPerimeter;snapToPoint=1;strokeColor=#8F8F8F;" vertex="1" parent="1">
          <mxGeometry x="1940.1799999999998" y="1430" width="20" height="20" as="geometry" />
        </mxCell>
        <mxCell id="SL3OJ4g4mQe82jDkw0CZ-132" value="" style="resizable=0;html=1;whiteSpace=wrap;align=right;verticalAlign=bottom;" connectable="0" vertex="1" parent="1">
          <mxGeometry x="1949.6699999999994" y="1575.04" as="geometry" />
        </mxCell>
        <mxCell id="SL3OJ4g4mQe82jDkw0CZ-134" value="" style="endArrow=oval;html=1;rounded=0;exitX=0.417;exitY=0;exitDx=0;exitDy=0;endFill=0;exitPerimeter=0;" edge="1" parent="1" target="SL3OJ4g4mQe82jDkw0CZ-135">
          <mxGeometry width="50" height="50" relative="1" as="geometry">
            <mxPoint x="1970.1799999999998" y="1470" as="sourcePoint" />
            <mxPoint x="1970.1799999999998" y="1400" as="targetPoint" />
          </mxGeometry>
        </mxCell>
        <mxCell id="SL3OJ4g4mQe82jDkw0CZ-135" value="&lt;div&gt;&lt;font style=&quot;font-size: 6px;&quot;&gt;Posti_disponibili&lt;/font&gt;&lt;/div&gt;" style="text;html=1;strokeColor=none;fillColor=none;align=center;verticalAlign=middle;whiteSpace=wrap;rounded=0;" vertex="1" parent="1">
          <mxGeometry x="1940.1799999999998" y="1380" width="60" height="30" as="geometry" />
        </mxCell>
        <mxCell id="SL3OJ4g4mQe82jDkw0CZ-157" value="" style="endArrow=oval;html=1;rounded=0;exitX=0.5;exitY=0;exitDx=0;exitDy=0;endFill=1;fontColor=#FFFFFF;strokeColor=#000000;labelBackgroundColor=#757575;" edge="1" parent="1" target="SL3OJ4g4mQe82jDkw0CZ-158">
          <mxGeometry width="50" height="50" relative="1" as="geometry">
            <mxPoint x="1989.9999999999998" y="1470" as="sourcePoint" />
            <mxPoint x="1989.9999999999998" y="1420" as="targetPoint" />
          </mxGeometry>
        </mxCell>
        <mxCell id="SL3OJ4g4mQe82jDkw0CZ-158" value="&lt;font style=&quot;font-size: 7px;&quot;&gt;ID_Assicurazione&lt;/font&gt;" style="text;html=1;strokeColor=none;fillColor=none;align=center;verticalAlign=middle;whiteSpace=wrap;rounded=0;" vertex="1" parent="1">
          <mxGeometry x="1959.9999999999998" y="1410" width="60" height="30" as="geometry" />
        </mxCell>
        <mxCell id="SL3OJ4g4mQe82jDkw0CZ-159" value="" style="shape=waypoint;sketch=0;fillStyle=solid;size=6;pointerEvents=1;points=[];fillColor=none;resizable=0;rotatable=0;perimeter=centerPerimeter;snapToPoint=1;strokeColor=#8F8F8F;" vertex="1" parent="1">
          <mxGeometry x="1979.9999999999998" y="1430" width="20" height="20" as="geometry" />
        </mxCell>
        <mxCell id="SL3OJ4g4mQe82jDkw0CZ-160" value="Guidare" style="shape=rhombus;perimeter=rhombusPerimeter;whiteSpace=wrap;html=1;align=center;" vertex="1" parent="1">
          <mxGeometry x="1905.18" y="1590" width="70" height="40" as="geometry" />
        </mxCell>
        <mxCell id="SL3OJ4g4mQe82jDkw0CZ-163" value="" style="endArrow=none;html=1;rounded=0;exitX=0.5;exitY=1;exitDx=0;exitDy=0;entryX=0.5;entryY=1;entryDx=0;entryDy=0;" edge="1" parent="1" source="SL3OJ4g4mQe82jDkw0CZ-14" target="SL3OJ4g4mQe82jDkw0CZ-160">
          <mxGeometry relative="1" as="geometry">
            <mxPoint x="1460" y="1750" as="sourcePoint" />
            <mxPoint x="1620" y="1750" as="targetPoint" />
            <Array as="points">
              <mxPoint x="1390" y="1720" />
              <mxPoint x="1940" y="1720" />
            </Array>
          </mxGeometry>
        </mxCell>
        <mxCell id="SL3OJ4g4mQe82jDkw0CZ-164" value="1,1" style="resizable=0;html=1;whiteSpace=wrap;align=right;verticalAlign=bottom;" connectable="0" vertex="1" parent="SL3OJ4g4mQe82jDkw0CZ-163">
          <mxGeometry x="1" relative="1" as="geometry">
            <mxPoint y="20" as="offset" />
          </mxGeometry>
        </mxCell>
        <mxCell id="SL3OJ4g4mQe82jDkw0CZ-176" value="" style="resizable=0;html=1;whiteSpace=wrap;align=right;verticalAlign=bottom;" connectable="0" vertex="1" parent="1">
          <mxGeometry x="1980.0014560815348" y="1540.0034811778005" as="geometry" />
        </mxCell>
        <mxCell id="SL3OJ4g4mQe82jDkw0CZ-177" value="Assicurazione" style="rounded=0;whiteSpace=wrap;html=1;" vertex="1" parent="1">
          <mxGeometry x="1985" y="1660" width="120" height="60" as="geometry" />
        </mxCell>
        <mxCell id="SL3OJ4g4mQe82jDkw0CZ-178" value="" style="endArrow=oval;html=1;rounded=0;exitX=0.417;exitY=0;exitDx=0;exitDy=0;endFill=1;exitPerimeter=0;" edge="1" target="SL3OJ4g4mQe82jDkw0CZ-179" parent="1">
          <mxGeometry width="50" height="50" relative="1" as="geometry">
            <mxPoint x="1995" y="1660" as="sourcePoint" />
            <mxPoint x="1995" y="1590" as="targetPoint" />
          </mxGeometry>
        </mxCell>
        <mxCell id="SL3OJ4g4mQe82jDkw0CZ-179" value="&lt;font style=&quot;font-size: 7px;&quot;&gt;ID_Assicurazione&lt;/font&gt;" style="text;html=1;strokeColor=none;fillColor=none;align=center;verticalAlign=middle;whiteSpace=wrap;rounded=0;" vertex="1" parent="1">
          <mxGeometry x="1965" y="1570" width="60" height="30" as="geometry" />
        </mxCell>
        <mxCell id="SL3OJ4g4mQe82jDkw0CZ-180" value="" style="endArrow=oval;html=1;rounded=0;exitX=0.5;exitY=0;exitDx=0;exitDy=0;endFill=0;fontColor=#FFFFFF;strokeColor=#000000;labelBackgroundColor=#757575;" edge="1" target="SL3OJ4g4mQe82jDkw0CZ-181" parent="1">
          <mxGeometry width="50" height="50" relative="1" as="geometry">
            <mxPoint x="2025" y="1660" as="sourcePoint" />
            <mxPoint x="2025" y="1610" as="targetPoint" />
          </mxGeometry>
        </mxCell>
        <mxCell id="SL3OJ4g4mQe82jDkw0CZ-181" value="&lt;font style=&quot;font-size: 7px;&quot;&gt;Data di scadenza&lt;/font&gt;" style="text;html=1;strokeColor=none;fillColor=none;align=center;verticalAlign=middle;whiteSpace=wrap;rounded=0;" vertex="1" parent="1">
          <mxGeometry x="1995" y="1600" width="60" height="30" as="geometry" />
        </mxCell>
        <mxCell id="SL3OJ4g4mQe82jDkw0CZ-182" value="" style="endArrow=oval;html=1;rounded=0;exitX=0.5;exitY=0;exitDx=0;exitDy=0;endFill=1;fontColor=#FFFFFF;strokeColor=#000000;labelBackgroundColor=#757575;" edge="1" target="SL3OJ4g4mQe82jDkw0CZ-183" parent="1">
          <mxGeometry width="50" height="50" relative="1" as="geometry">
            <mxPoint x="2095" y="1660.0000000000005" as="sourcePoint" />
            <mxPoint x="2095" y="1610" as="targetPoint" />
          </mxGeometry>
        </mxCell>
        <mxCell id="SL3OJ4g4mQe82jDkw0CZ-183" value="&lt;font style=&quot;font-size: 7px;&quot;&gt;Targa&lt;/font&gt;" style="text;html=1;strokeColor=none;fillColor=none;align=center;verticalAlign=middle;whiteSpace=wrap;rounded=0;" vertex="1" parent="1">
          <mxGeometry x="2065" y="1600" width="60" height="30" as="geometry" />
        </mxCell>
        <mxCell id="SL3OJ4g4mQe82jDkw0CZ-184" value="" style="shape=waypoint;sketch=0;fillStyle=solid;size=6;pointerEvents=1;points=[];fillColor=none;resizable=0;rotatable=0;perimeter=centerPerimeter;snapToPoint=1;strokeColor=#8F8F8F;" vertex="1" parent="1">
          <mxGeometry x="2085" y="1620" width="20" height="20" as="geometry" />
        </mxCell>
        <mxCell id="SL3OJ4g4mQe82jDkw0CZ-185" value="" style="endArrow=oval;html=1;rounded=0;exitX=0.5;exitY=0;exitDx=0;exitDy=0;endFill=0;fontColor=#FFFFFF;strokeColor=#000000;labelBackgroundColor=#757575;" edge="1" target="SL3OJ4g4mQe82jDkw0CZ-186" parent="1">
          <mxGeometry width="50" height="50" relative="1" as="geometry">
            <mxPoint x="2065" y="1660" as="sourcePoint" />
            <mxPoint x="2065" y="1610" as="targetPoint" />
          </mxGeometry>
        </mxCell>
        <mxCell id="SL3OJ4g4mQe82jDkw0CZ-186" value="&lt;font style=&quot;font-size: 7px;&quot;&gt;Tipo&lt;/font&gt;" style="text;html=1;strokeColor=none;fillColor=none;align=center;verticalAlign=middle;whiteSpace=wrap;rounded=0;" vertex="1" parent="1">
          <mxGeometry x="2035" y="1600" width="60" height="30" as="geometry" />
        </mxCell>
        <mxCell id="SL3OJ4g4mQe82jDkw0CZ-187" value="" style="endArrow=none;html=1;rounded=0;exitX=0.5;exitY=1;exitDx=0;exitDy=0;entryX=0.5;entryY=0;entryDx=0;entryDy=0;" edge="1" parent="1" source="SL3OJ4g4mQe82jDkw0CZ-122" target="SL3OJ4g4mQe82jDkw0CZ-160">
          <mxGeometry relative="1" as="geometry">
            <mxPoint x="2000" y="1660" as="sourcePoint" />
            <mxPoint x="2160" y="1660" as="targetPoint" />
          </mxGeometry>
        </mxCell>
        <mxCell id="SL3OJ4g4mQe82jDkw0CZ-188" value="1,1" style="resizable=0;html=1;whiteSpace=wrap;align=right;verticalAlign=bottom;" connectable="0" vertex="1" parent="SL3OJ4g4mQe82jDkw0CZ-187">
          <mxGeometry x="1" relative="1" as="geometry" />
        </mxCell>
        <mxCell id="SL3OJ4g4mQe82jDkw0CZ-189" value="Possedere" style="shape=rhombus;perimeter=rhombusPerimeter;whiteSpace=wrap;html=1;align=center;" vertex="1" parent="1">
          <mxGeometry x="2085" y="1480.0000000000002" width="70" height="40" as="geometry" />
        </mxCell>
        <mxCell id="SL3OJ4g4mQe82jDkw0CZ-192" value="" style="endArrow=none;html=1;rounded=0;exitX=1;exitY=0.25;exitDx=0;exitDy=0;entryX=0.5;entryY=1;entryDx=0;entryDy=0;" edge="1" parent="1" source="SL3OJ4g4mQe82jDkw0CZ-177" target="SL3OJ4g4mQe82jDkw0CZ-189">
          <mxGeometry relative="1" as="geometry">
            <mxPoint x="2070" y="1560" as="sourcePoint" />
            <mxPoint x="2230" y="1560" as="targetPoint" />
            <Array as="points">
              <mxPoint x="2120" y="1675" />
            </Array>
          </mxGeometry>
        </mxCell>
        <mxCell id="SL3OJ4g4mQe82jDkw0CZ-193" value="1,1" style="resizable=0;html=1;whiteSpace=wrap;align=right;verticalAlign=bottom;" connectable="0" vertex="1" parent="SL3OJ4g4mQe82jDkw0CZ-192">
          <mxGeometry x="1" relative="1" as="geometry">
            <mxPoint x="-1" y="20" as="offset" />
          </mxGeometry>
        </mxCell>
        <mxCell id="SL3OJ4g4mQe82jDkw0CZ-234" value="" style="endArrow=oval;html=1;rounded=0;exitX=0;exitY=0;exitDx=0;exitDy=0;endFill=0;entryX=0.5;entryY=1;entryDx=0;entryDy=0;" edge="1" source="SL3OJ4g4mQe82jDkw0CZ-247" target="SL3OJ4g4mQe82jDkw0CZ-235" parent="1">
          <mxGeometry width="50" height="50" relative="1" as="geometry">
            <mxPoint x="1597.25" y="1919.4500000000003" as="sourcePoint" />
            <mxPoint x="1597.25" y="1889.4500000000003" as="targetPoint" />
          </mxGeometry>
        </mxCell>
        <mxCell id="SL3OJ4g4mQe82jDkw0CZ-235" value="&lt;font style=&quot;font-size: 7px;&quot;&gt;Punto di raccolta&lt;/font&gt;" style="text;html=1;strokeColor=none;fillColor=none;align=center;verticalAlign=middle;whiteSpace=wrap;rounded=0;rotation=-15;" vertex="1" parent="1">
          <mxGeometry x="1557.25" y="1859.4500000000003" width="60" height="30" as="geometry" />
        </mxCell>
        <mxCell id="SL3OJ4g4mQe82jDkw0CZ-236" value="" style="endArrow=oval;html=1;rounded=0;exitX=0.347;exitY=0.025;exitDx=0;exitDy=0;endFill=0;exitPerimeter=0;" edge="1" source="SL3OJ4g4mQe82jDkw0CZ-247" target="SL3OJ4g4mQe82jDkw0CZ-237" parent="1">
          <mxGeometry width="50" height="50" relative="1" as="geometry">
            <mxPoint x="1617.29" y="1919.4500000000003" as="sourcePoint" />
            <mxPoint x="1617.25" y="1849.4500000000003" as="targetPoint" />
          </mxGeometry>
        </mxCell>
        <mxCell id="SL3OJ4g4mQe82jDkw0CZ-237" value="&lt;font style=&quot;font-size: 7px;&quot;&gt;Punto di rilascio&lt;/font&gt;" style="text;html=1;strokeColor=none;fillColor=none;align=center;verticalAlign=middle;whiteSpace=wrap;rounded=0;" vertex="1" parent="1">
          <mxGeometry x="1587.25" y="1829.4500000000003" width="60" height="30" as="geometry" />
        </mxCell>
        <mxCell id="SL3OJ4g4mQe82jDkw0CZ-238" value="" style="endArrow=oval;html=1;rounded=0;exitDx=0;exitDy=0;endFill=1;fontColor=#FFFFFF;strokeColor=#000000;labelBackgroundColor=#757575;" edge="1" source="SL3OJ4g4mQe82jDkw0CZ-249" target="SL3OJ4g4mQe82jDkw0CZ-239" parent="1">
          <mxGeometry width="50" height="50" relative="1" as="geometry">
            <mxPoint x="1637.25" y="1919.4500000000003" as="sourcePoint" />
            <mxPoint x="1637.25" y="1869.4500000000003" as="targetPoint" />
          </mxGeometry>
        </mxCell>
        <mxCell id="SL3OJ4g4mQe82jDkw0CZ-239" value="&lt;font style=&quot;font-size: 7px;&quot;&gt;ID_&lt;font style=&quot;font-size: 7px;&quot;&gt;Autista&lt;/font&gt;&lt;/font&gt;" style="text;html=1;strokeColor=none;fillColor=none;align=center;verticalAlign=middle;whiteSpace=wrap;rounded=0;" vertex="1" parent="1">
          <mxGeometry x="1607.25" y="1859.4500000000003" width="60" height="30" as="geometry" />
        </mxCell>
        <mxCell id="SL3OJ4g4mQe82jDkw0CZ-240" value="" style="endArrow=oval;html=1;rounded=0;exitX=0.049;exitY=0.281;exitDx=0;exitDy=0;endFill=1;exitPerimeter=0;" edge="1" source="SL3OJ4g4mQe82jDkw0CZ-247" target="SL3OJ4g4mQe82jDkw0CZ-241" parent="1">
          <mxGeometry width="50" height="50" relative="1" as="geometry">
            <mxPoint x="1576.8946609406728" y="1953.846796564404" as="sourcePoint" />
            <mxPoint x="1547.25" y="1885.0600000000004" as="targetPoint" />
          </mxGeometry>
        </mxCell>
        <mxCell id="SL3OJ4g4mQe82jDkw0CZ-241" value="&lt;font style=&quot;font-size: 7px;&quot;&gt;ID_Richiesta&lt;/font&gt;" style="text;html=1;strokeColor=none;fillColor=none;align=center;verticalAlign=middle;whiteSpace=wrap;rounded=0;rotation=-30;" vertex="1" parent="1">
          <mxGeometry x="1517.25" y="1865.0600000000004" width="60" height="30" as="geometry" />
        </mxCell>
        <mxCell id="SL3OJ4g4mQe82jDkw0CZ-242" value="" style="endArrow=oval;html=1;rounded=0;endFill=1;fontColor=#FFFFFF;strokeColor=#000000;labelBackgroundColor=#757575;exitX=0.666;exitY=0.021;exitDx=0;exitDy=0;exitPerimeter=0;" edge="1" source="SL3OJ4g4mQe82jDkw0CZ-247" parent="1">
          <mxGeometry width="50" height="50" relative="1" as="geometry">
            <mxPoint x="1656.76" y="1919.4500000000003" as="sourcePoint" />
            <mxPoint x="1657.76" y="1859.4500000000003" as="targetPoint" />
          </mxGeometry>
        </mxCell>
        <mxCell id="SL3OJ4g4mQe82jDkw0CZ-243" value="&lt;font style=&quot;font-size: 7px;&quot;&gt;ID_Utente&lt;/font&gt;" style="text;html=1;strokeColor=none;fillColor=none;align=center;verticalAlign=middle;whiteSpace=wrap;rounded=0;" vertex="1" parent="1">
          <mxGeometry x="1627.76" y="1829.4500000000003" width="60" height="30" as="geometry" />
        </mxCell>
        <mxCell id="SL3OJ4g4mQe82jDkw0CZ-244" value="" style="shape=waypoint;sketch=0;fillStyle=solid;size=6;pointerEvents=1;points=[];fillColor=none;resizable=0;rotatable=0;perimeter=centerPerimeter;snapToPoint=1;strokeColor=#8F8F8F;" vertex="1" parent="1">
          <mxGeometry x="1647.76" y="1849.4500000000003" width="20" height="20" as="geometry" />
        </mxCell>
        <mxCell id="SL3OJ4g4mQe82jDkw0CZ-245" value="" style="endArrow=oval;html=1;rounded=0;exitX=0.758;exitY=0.074;exitDx=0;exitDy=0;endFill=0;exitPerimeter=0;" edge="1" source="SL3OJ4g4mQe82jDkw0CZ-247" parent="1">
          <mxGeometry width="50" height="50" relative="1" as="geometry">
            <mxPoint x="1677.76" y="1919.4500000000003" as="sourcePoint" />
            <mxPoint x="1677.76" y="1889.4500000000003" as="targetPoint" />
          </mxGeometry>
        </mxCell>
        <mxCell id="SL3OJ4g4mQe82jDkw0CZ-246" value="&lt;font style=&quot;font-size: 7px;&quot;&gt;Orario richiesta&lt;/font&gt;" style="text;html=1;strokeColor=none;fillColor=none;align=center;verticalAlign=middle;whiteSpace=wrap;rounded=0;rotation=15;" vertex="1" parent="1">
          <mxGeometry x="1652.76" y="1859.4500000000003" width="60" height="30" as="geometry" />
        </mxCell>
        <mxCell id="SL3OJ4g4mQe82jDkw0CZ-247" value="Richiesta Prenotazione" style="ellipse;shape=doubleEllipse;whiteSpace=wrap;html=1;" vertex="1" parent="1">
          <mxGeometry x="1582.76" y="1929.4500000000003" width="100" height="60" as="geometry" />
        </mxCell>
        <mxCell id="SL3OJ4g4mQe82jDkw0CZ-248" value="" style="endArrow=oval;html=1;rounded=0;exitX=0.5;exitY=0;exitDx=0;exitDy=0;endFill=1;fontColor=#FFFFFF;strokeColor=#000000;labelBackgroundColor=#757575;" edge="1" source="SL3OJ4g4mQe82jDkw0CZ-247" target="SL3OJ4g4mQe82jDkw0CZ-249" parent="1">
          <mxGeometry width="50" height="50" relative="1" as="geometry">
            <mxPoint x="1632.76" y="1929.4500000000003" as="sourcePoint" />
            <mxPoint x="1635.76" y="1889.4500000000003" as="targetPoint" />
          </mxGeometry>
        </mxCell>
        <mxCell id="SL3OJ4g4mQe82jDkw0CZ-249" value="" style="shape=waypoint;sketch=0;fillStyle=solid;size=6;pointerEvents=1;points=[];fillColor=none;resizable=0;rotatable=0;perimeter=centerPerimeter;snapToPoint=1;strokeColor=#8F8F8F;" vertex="1" parent="1">
          <mxGeometry x="1622.76" y="1879.4500000000003" width="20" height="20" as="geometry" />
        </mxCell>
        <mxCell id="SL3OJ4g4mQe82jDkw0CZ-250" value="" style="endArrow=oval;html=1;rounded=0;exitX=0.966;exitY=0.312;exitDx=0;exitDy=0;endFill=0;exitPerimeter=0;" edge="1" source="SL3OJ4g4mQe82jDkw0CZ-247" target="SL3OJ4g4mQe82jDkw0CZ-251" parent="1">
          <mxGeometry width="50" height="50" relative="1" as="geometry">
            <mxPoint x="1718.27" y="1934.4500000000003" as="sourcePoint" />
            <mxPoint x="1717.76" y="1852.4500000000003" as="targetPoint" />
          </mxGeometry>
        </mxCell>
        <mxCell id="SL3OJ4g4mQe82jDkw0CZ-251" value="&lt;div style=&quot;font-size: 16px;&quot;&gt;&lt;font style=&quot;font-size: 8px;&quot;&gt;Numero&lt;/font&gt;&lt;/div&gt;&lt;div style=&quot;font-size: 8px; line-height: 90%;&quot;&gt;&lt;font style=&quot;font-size: 8px;&quot;&gt;Passeggeri&lt;font style=&quot;font-size: 16px;&quot;&gt;&lt;br&gt;&lt;/font&gt;&lt;/font&gt;&lt;/div&gt;" style="text;html=1;strokeColor=none;fillColor=none;align=center;verticalAlign=middle;whiteSpace=wrap;rounded=0;rotation=30;" vertex="1" parent="1">
          <mxGeometry x="1702.76" y="1839.4500000000003" width="50" height="40" as="geometry" />
        </mxCell>
        <mxCell id="SL3OJ4g4mQe82jDkw0CZ-254" value="" style="resizable=0;html=1;whiteSpace=wrap;align=right;verticalAlign=bottom;" connectable="0" vertex="1" parent="1">
          <mxGeometry x="1664.8399999999997" y="1829.4500000000003" as="geometry" />
        </mxCell>
        <mxCell id="SL3OJ4g4mQe82jDkw0CZ-256" value="" style="resizable=0;html=1;whiteSpace=wrap;align=right;verticalAlign=bottom;" connectable="0" vertex="1" parent="1">
          <mxGeometry x="1635.0012903225806" y="1829.4500000000003" as="geometry" />
        </mxCell>
        <mxCell id="SL3OJ4g4mQe82jDkw0CZ-262" value="&lt;div&gt;Utenti&lt;/div&gt;" style="rounded=0;whiteSpace=wrap;html=1;" vertex="1" parent="1">
          <mxGeometry x="1245" y="2180" width="120" height="60" as="geometry" />
        </mxCell>
        <mxCell id="SL3OJ4g4mQe82jDkw0CZ-263" value="" style="endArrow=oval;html=1;rounded=0;exitX=0.5;exitY=0;exitDx=0;exitDy=0;endFill=0;" edge="1" parent="1" target="SL3OJ4g4mQe82jDkw0CZ-264">
          <mxGeometry width="50" height="50" relative="1" as="geometry">
            <mxPoint x="1275" y="2180" as="sourcePoint" />
            <mxPoint x="1275" y="2130" as="targetPoint" />
          </mxGeometry>
        </mxCell>
        <mxCell id="SL3OJ4g4mQe82jDkw0CZ-264" value="&lt;font style=&quot;font-size: 7px;&quot;&gt;Nome&lt;/font&gt;" style="text;html=1;strokeColor=none;fillColor=none;align=center;verticalAlign=middle;whiteSpace=wrap;rounded=0;" vertex="1" parent="1">
          <mxGeometry x="1245" y="2120" width="60" height="30" as="geometry" />
        </mxCell>
        <mxCell id="SL3OJ4g4mQe82jDkw0CZ-265" value="" style="endArrow=oval;html=1;rounded=0;exitX=0.417;exitY=0;exitDx=0;exitDy=0;endFill=0;exitPerimeter=0;" edge="1" parent="1" source="SL3OJ4g4mQe82jDkw0CZ-262" target="SL3OJ4g4mQe82jDkw0CZ-266">
          <mxGeometry width="50" height="50" relative="1" as="geometry">
            <mxPoint x="1295" y="2160" as="sourcePoint" />
            <mxPoint x="1295" y="2110" as="targetPoint" />
          </mxGeometry>
        </mxCell>
        <mxCell id="SL3OJ4g4mQe82jDkw0CZ-266" value="&lt;div style=&quot;font-size: 7px;&quot;&gt;Cognome&lt;/div&gt;" style="text;html=1;strokeColor=none;fillColor=none;align=center;verticalAlign=middle;whiteSpace=wrap;rounded=0;" vertex="1" parent="1">
          <mxGeometry x="1265" y="2090" width="60" height="30" as="geometry" />
        </mxCell>
        <mxCell id="SL3OJ4g4mQe82jDkw0CZ-267" value="" style="endArrow=oval;html=1;rounded=0;exitX=0.5;exitY=0;exitDx=0;exitDy=0;endFill=0;" edge="1" parent="1" target="SL3OJ4g4mQe82jDkw0CZ-268">
          <mxGeometry width="50" height="50" relative="1" as="geometry">
            <mxPoint x="1315" y="2180" as="sourcePoint" />
            <mxPoint x="1315" y="2130" as="targetPoint" />
          </mxGeometry>
        </mxCell>
        <mxCell id="SL3OJ4g4mQe82jDkw0CZ-268" value="&lt;font style=&quot;font-size: 7px;&quot;&gt;Email&lt;/font&gt;" style="text;html=1;strokeColor=none;fillColor=none;align=center;verticalAlign=middle;whiteSpace=wrap;rounded=0;" vertex="1" parent="1">
          <mxGeometry x="1285" y="2120" width="60" height="30" as="geometry" />
        </mxCell>
        <mxCell id="SL3OJ4g4mQe82jDkw0CZ-269" value="" style="endArrow=oval;html=1;rounded=0;exitX=0.417;exitY=0;exitDx=0;exitDy=0;endFill=0;exitPerimeter=0;" edge="1" parent="1" target="SL3OJ4g4mQe82jDkw0CZ-270">
          <mxGeometry width="50" height="50" relative="1" as="geometry">
            <mxPoint x="1335" y="2180" as="sourcePoint" />
            <mxPoint x="1335" y="2110" as="targetPoint" />
          </mxGeometry>
        </mxCell>
        <mxCell id="SL3OJ4g4mQe82jDkw0CZ-270" value="&lt;div style=&quot;font-size: 7px;&quot;&gt;Psw&lt;br&gt;&lt;/div&gt;" style="text;html=1;strokeColor=none;fillColor=none;align=center;verticalAlign=middle;whiteSpace=wrap;rounded=0;" vertex="1" parent="1">
          <mxGeometry x="1305" y="2090" width="60" height="30" as="geometry" />
        </mxCell>
        <mxCell id="SL3OJ4g4mQe82jDkw0CZ-271" value="" style="endArrow=oval;html=1;rounded=0;exitX=0.417;exitY=0;exitDx=0;exitDy=0;endFill=1;exitPerimeter=0;" edge="1" parent="1" target="SL3OJ4g4mQe82jDkw0CZ-272">
          <mxGeometry width="50" height="50" relative="1" as="geometry">
            <mxPoint x="1255" y="2180" as="sourcePoint" />
            <mxPoint x="1255" y="2110" as="targetPoint" />
          </mxGeometry>
        </mxCell>
        <mxCell id="SL3OJ4g4mQe82jDkw0CZ-272" value="&lt;div style=&quot;font-size: 7px;&quot;&gt;ID_Utente&lt;/div&gt;" style="text;html=1;strokeColor=none;fillColor=none;align=center;verticalAlign=middle;whiteSpace=wrap;rounded=0;" vertex="1" parent="1">
          <mxGeometry x="1225" y="2090" width="60" height="30" as="geometry" />
        </mxCell>
        <mxCell id="SL3OJ4g4mQe82jDkw0CZ-273" value="" style="endArrow=oval;html=1;rounded=0;exitX=0.5;exitY=0;exitDx=0;exitDy=0;endFill=0;" edge="1" parent="1" target="SL3OJ4g4mQe82jDkw0CZ-274">
          <mxGeometry width="50" height="50" relative="1" as="geometry">
            <mxPoint x="1355" y="2180" as="sourcePoint" />
            <mxPoint x="1355" y="2130" as="targetPoint" />
          </mxGeometry>
        </mxCell>
        <mxCell id="SL3OJ4g4mQe82jDkw0CZ-274" value="&lt;font style=&quot;font-size: 6px;&quot;&gt;Abbonamento&lt;/font&gt;" style="text;html=1;strokeColor=none;fillColor=none;align=center;verticalAlign=middle;whiteSpace=wrap;rounded=0;" vertex="1" parent="1">
          <mxGeometry x="1325" y="2120" width="60" height="30" as="geometry" />
        </mxCell>
        <mxCell id="SL3OJ4g4mQe82jDkw0CZ-285" value="Carta" style="rounded=0;whiteSpace=wrap;html=1;" vertex="1" parent="1">
          <mxGeometry x="1245" y="2340" width="120" height="60" as="geometry" />
        </mxCell>
        <mxCell id="SL3OJ4g4mQe82jDkw0CZ-286" value="" style="endArrow=oval;html=1;rounded=0;exitX=0.417;exitY=0;exitDx=0;exitDy=0;endFill=1;exitPerimeter=0;" edge="1" parent="1" target="SL3OJ4g4mQe82jDkw0CZ-287">
          <mxGeometry width="50" height="50" relative="1" as="geometry">
            <mxPoint x="1255" y="2340" as="sourcePoint" />
            <mxPoint x="1255" y="2270" as="targetPoint" />
          </mxGeometry>
        </mxCell>
        <mxCell id="SL3OJ4g4mQe82jDkw0CZ-287" value="&lt;font style=&quot;font-size: 7px;&quot;&gt;Numero Carta&lt;br&gt;&lt;/font&gt;" style="text;html=1;strokeColor=none;fillColor=none;align=center;verticalAlign=middle;whiteSpace=wrap;rounded=0;" vertex="1" parent="1">
          <mxGeometry x="1225" y="2250" width="60" height="30" as="geometry" />
        </mxCell>
        <mxCell id="SL3OJ4g4mQe82jDkw0CZ-288" value="" style="endArrow=oval;html=1;rounded=0;endFill=0;fontColor=#FFFFFF;strokeColor=#000000;labelBackgroundColor=#757575;" edge="1" parent="1" target="SL3OJ4g4mQe82jDkw0CZ-289">
          <mxGeometry width="50" height="50" relative="1" as="geometry">
            <mxPoint x="1295" y="2340" as="sourcePoint" />
            <mxPoint x="1295" y="2260" as="targetPoint" />
          </mxGeometry>
        </mxCell>
        <mxCell id="SL3OJ4g4mQe82jDkw0CZ-289" value="&lt;span style=&quot;font-size: 7px;&quot;&gt;CVV&lt;/span&gt;" style="text;html=1;strokeColor=none;fillColor=none;align=center;verticalAlign=middle;whiteSpace=wrap;rounded=0;" vertex="1" parent="1">
          <mxGeometry x="1265" y="2250" width="60" height="30" as="geometry" />
        </mxCell>
        <mxCell id="SL3OJ4g4mQe82jDkw0CZ-290" value="" style="endArrow=oval;html=1;rounded=0;exitX=0.5;exitY=0;exitDx=0;exitDy=0;endFill=0;" edge="1" parent="1">
          <mxGeometry width="50" height="50" relative="1" as="geometry">
            <mxPoint x="1275" y="2340" as="sourcePoint" />
            <mxPoint x="1275" y="2310" as="targetPoint" />
          </mxGeometry>
        </mxCell>
        <mxCell id="SL3OJ4g4mQe82jDkw0CZ-291" value="&lt;font style=&quot;font-size: 5px;&quot;&gt;Data Scadenza&amp;nbsp;&lt;/font&gt;" style="text;html=1;strokeColor=none;fillColor=none;align=center;verticalAlign=middle;whiteSpace=wrap;rounded=0;" vertex="1" parent="1">
          <mxGeometry x="1245" y="2280" width="60" height="30" as="geometry" />
        </mxCell>
        <mxCell id="SL3OJ4g4mQe82jDkw0CZ-292" value="" style="endArrow=oval;html=1;rounded=0;exitX=0.5;exitY=0;exitDx=0;exitDy=0;endFill=1;fontColor=#FFFFFF;strokeColor=#000000;labelBackgroundColor=#757575;" edge="1" parent="1" target="SL3OJ4g4mQe82jDkw0CZ-293">
          <mxGeometry width="50" height="50" relative="1" as="geometry">
            <mxPoint x="1315" y="2340" as="sourcePoint" />
            <mxPoint x="1315" y="2290" as="targetPoint" />
          </mxGeometry>
        </mxCell>
        <mxCell id="SL3OJ4g4mQe82jDkw0CZ-293" value="&lt;font style=&quot;font-size: 7px;&quot;&gt;ID_Utente&lt;br&gt;&lt;/font&gt;" style="text;html=1;strokeColor=none;fillColor=none;align=center;verticalAlign=middle;whiteSpace=wrap;rounded=0;" vertex="1" parent="1">
          <mxGeometry x="1285" y="2280" width="60" height="30" as="geometry" />
        </mxCell>
        <mxCell id="SL3OJ4g4mQe82jDkw0CZ-294" value="" style="shape=waypoint;sketch=0;fillStyle=solid;size=6;pointerEvents=1;points=[];fillColor=none;resizable=0;rotatable=0;perimeter=centerPerimeter;snapToPoint=1;strokeColor=#8F8F8F;" vertex="1" parent="1">
          <mxGeometry x="1305" y="2300" width="20" height="20" as="geometry" />
        </mxCell>
        <mxCell id="SL3OJ4g4mQe82jDkw0CZ-433" value="" style="edgeStyle=orthogonalEdgeStyle;rounded=0;orthogonalLoop=1;jettySize=auto;html=1;" edge="1" parent="1" source="SL3OJ4g4mQe82jDkw0CZ-295" target="SL3OJ4g4mQe82jDkw0CZ-342">
          <mxGeometry relative="1" as="geometry" />
        </mxCell>
        <mxCell id="SL3OJ4g4mQe82jDkw0CZ-295" value="Possedere" style="shape=rhombus;perimeter=rhombusPerimeter;whiteSpace=wrap;html=1;align=center;" vertex="1" parent="1">
          <mxGeometry x="1130" y="2260" width="70" height="40" as="geometry" />
        </mxCell>
        <mxCell id="SL3OJ4g4mQe82jDkw0CZ-296" value="" style="endArrow=none;html=1;rounded=0;entryX=0.5;entryY=1;entryDx=0;entryDy=0;exitX=0;exitY=0.25;exitDx=0;exitDy=0;" edge="1" parent="1" source="SL3OJ4g4mQe82jDkw0CZ-285" target="SL3OJ4g4mQe82jDkw0CZ-295">
          <mxGeometry relative="1" as="geometry">
            <mxPoint x="1060" y="2340" as="sourcePoint" />
            <mxPoint x="1220" y="2340" as="targetPoint" />
            <Array as="points">
              <mxPoint x="1165" y="2355" />
            </Array>
          </mxGeometry>
        </mxCell>
        <mxCell id="SL3OJ4g4mQe82jDkw0CZ-297" value="1,1" style="resizable=0;html=1;whiteSpace=wrap;align=right;verticalAlign=bottom;" connectable="0" vertex="1" parent="SL3OJ4g4mQe82jDkw0CZ-296">
          <mxGeometry x="1" relative="1" as="geometry">
            <mxPoint y="20" as="offset" />
          </mxGeometry>
        </mxCell>
        <mxCell id="SL3OJ4g4mQe82jDkw0CZ-298" value="" style="endArrow=none;html=1;rounded=0;entryX=0.5;entryY=0;entryDx=0;entryDy=0;exitX=0;exitY=0.75;exitDx=0;exitDy=0;" edge="1" parent="1" source="SL3OJ4g4mQe82jDkw0CZ-262" target="SL3OJ4g4mQe82jDkw0CZ-295">
          <mxGeometry relative="1" as="geometry">
            <mxPoint x="1050" y="2240" as="sourcePoint" />
            <mxPoint x="1210" y="2240" as="targetPoint" />
            <Array as="points">
              <mxPoint x="1165" y="2225" />
            </Array>
          </mxGeometry>
        </mxCell>
        <mxCell id="SL3OJ4g4mQe82jDkw0CZ-299" value="1,N" style="resizable=0;html=1;whiteSpace=wrap;align=right;verticalAlign=bottom;" connectable="0" vertex="1" parent="SL3OJ4g4mQe82jDkw0CZ-298">
          <mxGeometry x="1" relative="1" as="geometry" />
        </mxCell>
        <mxCell id="SL3OJ4g4mQe82jDkw0CZ-394" style="edgeStyle=orthogonalEdgeStyle;rounded=0;orthogonalLoop=1;jettySize=auto;html=1;entryX=1;entryY=0.5;entryDx=0;entryDy=0;" edge="1" parent="1" source="SL3OJ4g4mQe82jDkw0CZ-319" target="SL3OJ4g4mQe82jDkw0CZ-247">
          <mxGeometry relative="1" as="geometry" />
        </mxCell>
        <mxCell id="SL3OJ4g4mQe82jDkw0CZ-319" value="Tratte Complete" style="rounded=0;whiteSpace=wrap;html=1;" vertex="1" parent="1">
          <mxGeometry x="1922.24" y="1989.4499999999998" width="120" height="60" as="geometry" />
        </mxCell>
        <mxCell id="SL3OJ4g4mQe82jDkw0CZ-320" value="" style="endArrow=oval;html=1;rounded=0;exitX=0.417;exitY=0;exitDx=0;exitDy=0;endFill=1;exitPerimeter=0;" edge="1" parent="1" target="SL3OJ4g4mQe82jDkw0CZ-321">
          <mxGeometry width="50" height="50" relative="1" as="geometry">
            <mxPoint x="1932.24" y="1989.4499999999998" as="sourcePoint" />
            <mxPoint x="1932.24" y="1919.4499999999998" as="targetPoint" />
          </mxGeometry>
        </mxCell>
        <mxCell id="SL3OJ4g4mQe82jDkw0CZ-321" value="&lt;font style=&quot;font-size: 7px;&quot;&gt;ID_Tratta&lt;br&gt;&lt;/font&gt;" style="text;html=1;strokeColor=none;fillColor=none;align=center;verticalAlign=middle;whiteSpace=wrap;rounded=0;" vertex="1" parent="1">
          <mxGeometry x="1902.24" y="1899.4499999999998" width="60" height="30" as="geometry" />
        </mxCell>
        <mxCell id="SL3OJ4g4mQe82jDkw0CZ-322" value="" style="endArrow=oval;html=1;rounded=0;exitX=0.5;exitY=0;exitDx=0;exitDy=0;endFill=1;fontColor=#FFFFFF;strokeColor=#000000;labelBackgroundColor=#757575;" edge="1" parent="1" target="SL3OJ4g4mQe82jDkw0CZ-323">
          <mxGeometry width="50" height="50" relative="1" as="geometry">
            <mxPoint x="1962.24" y="1989.4499999999998" as="sourcePoint" />
            <mxPoint x="1962.24" y="1939.4499999999998" as="targetPoint" />
          </mxGeometry>
        </mxCell>
        <mxCell id="SL3OJ4g4mQe82jDkw0CZ-323" value="&lt;font style=&quot;font-size: 7px;&quot;&gt;ID_Richiesta&lt;/font&gt;" style="text;html=1;strokeColor=none;fillColor=none;align=center;verticalAlign=middle;whiteSpace=wrap;rounded=0;" vertex="1" parent="1">
          <mxGeometry x="1932.24" y="1929.4499999999998" width="60" height="30" as="geometry" />
        </mxCell>
        <mxCell id="SL3OJ4g4mQe82jDkw0CZ-324" value="" style="shape=waypoint;sketch=0;fillStyle=solid;size=6;pointerEvents=1;points=[];fillColor=none;resizable=0;rotatable=0;perimeter=centerPerimeter;snapToPoint=1;strokeColor=#8F8F8F;" vertex="1" parent="1">
          <mxGeometry x="1952.24" y="1949.4499999999998" width="20" height="20" as="geometry" />
        </mxCell>
        <mxCell id="SL3OJ4g4mQe82jDkw0CZ-325" value="" style="endArrow=oval;html=1;rounded=0;endFill=0;fontColor=#FFFFFF;strokeColor=#000000;labelBackgroundColor=#757575;" edge="1" parent="1" target="SL3OJ4g4mQe82jDkw0CZ-326">
          <mxGeometry width="50" height="50" relative="1" as="geometry">
            <mxPoint x="1992.24" y="1989.4499999999998" as="sourcePoint" />
            <mxPoint x="1992.24" y="1909.4499999999998" as="targetPoint" />
          </mxGeometry>
        </mxCell>
        <mxCell id="SL3OJ4g4mQe82jDkw0CZ-326" value="&lt;font style=&quot;font-size: 7px;&quot;&gt;Costo&lt;/font&gt;" style="text;html=1;strokeColor=none;fillColor=none;align=center;verticalAlign=middle;whiteSpace=wrap;rounded=0;" vertex="1" parent="1">
          <mxGeometry x="1962.24" y="1899.4499999999998" width="60" height="30" as="geometry" />
        </mxCell>
        <mxCell id="SL3OJ4g4mQe82jDkw0CZ-416" style="edgeStyle=orthogonalEdgeStyle;rounded=0;orthogonalLoop=1;jettySize=auto;html=1;entryX=1;entryY=1;entryDx=0;entryDy=0;" edge="1" parent="1" source="SL3OJ4g4mQe82jDkw0CZ-327" target="SL3OJ4g4mQe82jDkw0CZ-247">
          <mxGeometry relative="1" as="geometry" />
        </mxCell>
        <mxCell id="SL3OJ4g4mQe82jDkw0CZ-327" value="Tratte Rifiutate" style="rounded=0;whiteSpace=wrap;html=1;" vertex="1" parent="1">
          <mxGeometry x="1922.24" y="2149.45" width="120" height="60" as="geometry" />
        </mxCell>
        <mxCell id="SL3OJ4g4mQe82jDkw0CZ-328" value="" style="endArrow=oval;html=1;rounded=0;exitX=0.417;exitY=0;exitDx=0;exitDy=0;endFill=1;exitPerimeter=0;" edge="1" parent="1" target="SL3OJ4g4mQe82jDkw0CZ-329">
          <mxGeometry width="50" height="50" relative="1" as="geometry">
            <mxPoint x="1932.24" y="2149.45" as="sourcePoint" />
            <mxPoint x="1932.24" y="2079.45" as="targetPoint" />
          </mxGeometry>
        </mxCell>
        <mxCell id="SL3OJ4g4mQe82jDkw0CZ-329" value="&lt;font style=&quot;font-size: 7px;&quot;&gt;ID_Tratta&lt;br&gt;&lt;/font&gt;" style="text;html=1;strokeColor=none;fillColor=none;align=center;verticalAlign=middle;whiteSpace=wrap;rounded=0;" vertex="1" parent="1">
          <mxGeometry x="1902.24" y="2059.45" width="60" height="30" as="geometry" />
        </mxCell>
        <mxCell id="SL3OJ4g4mQe82jDkw0CZ-330" value="" style="endArrow=oval;html=1;rounded=0;exitX=0.5;exitY=0;exitDx=0;exitDy=0;endFill=1;fontColor=#FFFFFF;strokeColor=#000000;labelBackgroundColor=#757575;" edge="1" parent="1" target="SL3OJ4g4mQe82jDkw0CZ-331">
          <mxGeometry width="50" height="50" relative="1" as="geometry">
            <mxPoint x="1962.24" y="2149.45" as="sourcePoint" />
            <mxPoint x="1962.24" y="2099.45" as="targetPoint" />
          </mxGeometry>
        </mxCell>
        <mxCell id="SL3OJ4g4mQe82jDkw0CZ-331" value="&lt;font style=&quot;font-size: 7px;&quot;&gt;ID_Richiesta&lt;/font&gt;" style="text;html=1;strokeColor=none;fillColor=none;align=center;verticalAlign=middle;whiteSpace=wrap;rounded=0;" vertex="1" parent="1">
          <mxGeometry x="1932.24" y="2089.45" width="60" height="30" as="geometry" />
        </mxCell>
        <mxCell id="SL3OJ4g4mQe82jDkw0CZ-332" value="" style="shape=waypoint;sketch=0;fillStyle=solid;size=6;pointerEvents=1;points=[];fillColor=none;resizable=0;rotatable=0;perimeter=centerPerimeter;snapToPoint=1;strokeColor=#8F8F8F;" vertex="1" parent="1">
          <mxGeometry x="1952.24" y="2109.45" width="20" height="20" as="geometry" />
        </mxCell>
        <mxCell id="SL3OJ4g4mQe82jDkw0CZ-333" value="" style="endArrow=oval;html=1;rounded=0;endFill=0;fontColor=#FFFFFF;strokeColor=#000000;labelBackgroundColor=#757575;" edge="1" parent="1" target="SL3OJ4g4mQe82jDkw0CZ-334">
          <mxGeometry width="50" height="50" relative="1" as="geometry">
            <mxPoint x="1992.24" y="2149.45" as="sourcePoint" />
            <mxPoint x="1992.24" y="2069.45" as="targetPoint" />
          </mxGeometry>
        </mxCell>
        <mxCell id="SL3OJ4g4mQe82jDkw0CZ-334" value="&lt;font style=&quot;font-size: 7px;&quot;&gt;Motivazione&lt;/font&gt;" style="text;html=1;strokeColor=none;fillColor=none;align=center;verticalAlign=middle;whiteSpace=wrap;rounded=0;" vertex="1" parent="1">
          <mxGeometry x="1962.24" y="2059.45" width="60" height="30" as="geometry" />
        </mxCell>
        <mxCell id="SL3OJ4g4mQe82jDkw0CZ-335" value="" style="endArrow=oval;html=1;rounded=0;exitX=0.5;exitY=0;exitDx=0;exitDy=0;endFill=1;fontColor=#FFFFFF;strokeColor=#000000;labelBackgroundColor=#757575;" edge="1" parent="1" target="SL3OJ4g4mQe82jDkw0CZ-336">
          <mxGeometry width="50" height="50" relative="1" as="geometry">
            <mxPoint x="2022.24" y="1989.4499999999998" as="sourcePoint" />
            <mxPoint x="2022.24" y="1939.4499999999998" as="targetPoint" />
          </mxGeometry>
        </mxCell>
        <mxCell id="SL3OJ4g4mQe82jDkw0CZ-336" value="&lt;font style=&quot;font-size: 7px;&quot;&gt;Numero Carta&lt;/font&gt;" style="text;html=1;strokeColor=none;fillColor=none;align=center;verticalAlign=middle;whiteSpace=wrap;rounded=0;" vertex="1" parent="1">
          <mxGeometry x="1992.24" y="1929.4499999999998" width="60" height="30" as="geometry" />
        </mxCell>
        <mxCell id="SL3OJ4g4mQe82jDkw0CZ-337" value="" style="shape=waypoint;sketch=0;fillStyle=solid;size=6;pointerEvents=1;points=[];fillColor=none;resizable=0;rotatable=0;perimeter=centerPerimeter;snapToPoint=1;strokeColor=#8F8F8F;" vertex="1" parent="1">
          <mxGeometry x="2012.24" y="1949.4499999999998" width="20" height="20" as="geometry" />
        </mxCell>
        <mxCell id="SL3OJ4g4mQe82jDkw0CZ-338" value="" style="endArrow=none;html=1;rounded=0;exitX=1;exitY=0.75;exitDx=0;exitDy=0;entryX=0.5;entryY=0;entryDx=0;entryDy=0;" edge="1" parent="1" source="SL3OJ4g4mQe82jDkw0CZ-22" target="SL3OJ4g4mQe82jDkw0CZ-78">
          <mxGeometry relative="1" as="geometry">
            <mxPoint x="1280" y="1860" as="sourcePoint" />
            <mxPoint x="1440" y="1860" as="targetPoint" />
            <Array as="points">
              <mxPoint x="1306" y="1885" />
            </Array>
          </mxGeometry>
        </mxCell>
        <mxCell id="SL3OJ4g4mQe82jDkw0CZ-339" value="1,N" style="resizable=0;html=1;whiteSpace=wrap;align=right;verticalAlign=bottom;" connectable="0" vertex="1" parent="SL3OJ4g4mQe82jDkw0CZ-338">
          <mxGeometry x="1" relative="1" as="geometry" />
        </mxCell>
        <mxCell id="SL3OJ4g4mQe82jDkw0CZ-340" value="" style="endArrow=none;html=1;rounded=0;exitX=1;exitY=0.25;exitDx=0;exitDy=0;entryX=0.5;entryY=1;entryDx=0;entryDy=0;" edge="1" parent="1" source="SL3OJ4g4mQe82jDkw0CZ-66" target="SL3OJ4g4mQe82jDkw0CZ-78">
          <mxGeometry relative="1" as="geometry">
            <mxPoint x="1210" y="2000" as="sourcePoint" />
            <mxPoint x="1370" y="2000" as="targetPoint" />
            <Array as="points">
              <mxPoint x="1306" y="2035" />
            </Array>
          </mxGeometry>
        </mxCell>
        <mxCell id="SL3OJ4g4mQe82jDkw0CZ-341" value="1,0" style="resizable=0;html=1;whiteSpace=wrap;align=right;verticalAlign=bottom;" connectable="0" vertex="1" parent="SL3OJ4g4mQe82jDkw0CZ-340">
          <mxGeometry x="1" relative="1" as="geometry">
            <mxPoint y="20" as="offset" />
          </mxGeometry>
        </mxCell>
        <mxCell id="SL3OJ4g4mQe82jDkw0CZ-342" value="Avere" style="shape=rhombus;perimeter=rhombusPerimeter;whiteSpace=wrap;html=1;align=center;" vertex="1" parent="1">
          <mxGeometry x="1155" y="2120" width="70" height="40" as="geometry" />
        </mxCell>
        <mxCell id="SL3OJ4g4mQe82jDkw0CZ-345" value="" style="endArrow=none;html=1;rounded=0;exitX=0;exitY=0.25;exitDx=0;exitDy=0;entryX=0.5;entryY=1;entryDx=0;entryDy=0;" edge="1" parent="1" source="SL3OJ4g4mQe82jDkw0CZ-262" target="SL3OJ4g4mQe82jDkw0CZ-342">
          <mxGeometry relative="1" as="geometry">
            <mxPoint x="1070" y="2190" as="sourcePoint" />
            <mxPoint x="1230" y="2190" as="targetPoint" />
            <Array as="points">
              <mxPoint x="1190" y="2195" />
            </Array>
          </mxGeometry>
        </mxCell>
        <mxCell id="SL3OJ4g4mQe82jDkw0CZ-346" value="1,N" style="resizable=0;html=1;whiteSpace=wrap;align=right;verticalAlign=bottom;" connectable="0" vertex="1" parent="SL3OJ4g4mQe82jDkw0CZ-345">
          <mxGeometry x="1" relative="1" as="geometry">
            <mxPoint y="20" as="offset" />
          </mxGeometry>
        </mxCell>
        <mxCell id="SL3OJ4g4mQe82jDkw0CZ-351" value="" style="endArrow=none;html=1;rounded=0;entryX=0.5;entryY=0;entryDx=0;entryDy=0;exitX=0.5;exitY=1;exitDx=0;exitDy=0;" edge="1" parent="1" source="SL3OJ4g4mQe82jDkw0CZ-66" target="SL3OJ4g4mQe82jDkw0CZ-342">
          <mxGeometry relative="1" as="geometry">
            <mxPoint x="1050" y="2110" as="sourcePoint" />
            <mxPoint x="1210" y="2110" as="targetPoint" />
          </mxGeometry>
        </mxCell>
        <mxCell id="SL3OJ4g4mQe82jDkw0CZ-352" value="0,1" style="resizable=0;html=1;whiteSpace=wrap;align=right;verticalAlign=bottom;" connectable="0" vertex="1" parent="SL3OJ4g4mQe82jDkw0CZ-351">
          <mxGeometry x="1" relative="1" as="geometry" />
        </mxCell>
        <mxCell id="SL3OJ4g4mQe82jDkw0CZ-353" value="Asseganto a" style="shape=rhombus;perimeter=rhombusPerimeter;whiteSpace=wrap;html=1;align=center;" vertex="1" parent="1">
          <mxGeometry x="1380" y="1930" width="70" height="40" as="geometry" />
        </mxCell>
        <mxCell id="SL3OJ4g4mQe82jDkw0CZ-354" value="" style="endArrow=none;html=1;rounded=0;exitX=0.25;exitY=1;exitDx=0;exitDy=0;entryX=0;entryY=0.5;entryDx=0;entryDy=0;" edge="1" parent="1" source="SL3OJ4g4mQe82jDkw0CZ-14" target="SL3OJ4g4mQe82jDkw0CZ-353">
          <mxGeometry relative="1" as="geometry">
            <mxPoint x="1340" y="1810" as="sourcePoint" />
            <mxPoint x="1500" y="1810" as="targetPoint" />
            <Array as="points">
              <mxPoint x="1360" y="1950" />
            </Array>
          </mxGeometry>
        </mxCell>
        <mxCell id="SL3OJ4g4mQe82jDkw0CZ-355" value="1,1" style="resizable=0;html=1;whiteSpace=wrap;align=right;verticalAlign=bottom;" connectable="0" vertex="1" parent="SL3OJ4g4mQe82jDkw0CZ-354">
          <mxGeometry x="1" relative="1" as="geometry" />
        </mxCell>
        <mxCell id="SL3OJ4g4mQe82jDkw0CZ-358" value="Effettuare" style="shape=rhombus;perimeter=rhombusPerimeter;whiteSpace=wrap;html=1;align=center;" vertex="1" parent="1">
          <mxGeometry x="1380" y="2030" width="70" height="40" as="geometry" />
        </mxCell>
        <mxCell id="SL3OJ4g4mQe82jDkw0CZ-360" value="" style="endArrow=none;html=1;rounded=0;exitX=1;exitY=0.25;exitDx=0;exitDy=0;entryX=0.5;entryY=1;entryDx=0;entryDy=0;" edge="1" parent="1" source="SL3OJ4g4mQe82jDkw0CZ-262" target="SL3OJ4g4mQe82jDkw0CZ-358">
          <mxGeometry relative="1" as="geometry">
            <mxPoint x="1390" y="2220" as="sourcePoint" />
            <mxPoint x="1550" y="2220" as="targetPoint" />
            <Array as="points">
              <mxPoint x="1415" y="2195" />
            </Array>
          </mxGeometry>
        </mxCell>
        <mxCell id="SL3OJ4g4mQe82jDkw0CZ-361" value="1,N" style="resizable=0;html=1;whiteSpace=wrap;align=right;verticalAlign=bottom;" connectable="0" vertex="1" parent="SL3OJ4g4mQe82jDkw0CZ-360">
          <mxGeometry x="1" relative="1" as="geometry">
            <mxPoint y="20" as="offset" />
          </mxGeometry>
        </mxCell>
        <mxCell id="SL3OJ4g4mQe82jDkw0CZ-362" value="" style="endArrow=none;html=1;rounded=0;entryX=1;entryY=0.5;entryDx=0;entryDy=0;exitX=0;exitY=0.5;exitDx=0;exitDy=0;" edge="1" parent="1" source="SL3OJ4g4mQe82jDkw0CZ-247" target="SL3OJ4g4mQe82jDkw0CZ-358">
          <mxGeometry relative="1" as="geometry">
            <mxPoint x="1450" y="2080" as="sourcePoint" />
            <mxPoint x="1610" y="2080" as="targetPoint" />
            <Array as="points">
              <mxPoint x="1525" y="1960" />
              <mxPoint x="1525" y="2050" />
            </Array>
          </mxGeometry>
        </mxCell>
        <mxCell id="SL3OJ4g4mQe82jDkw0CZ-363" value="1,1" style="resizable=0;html=1;whiteSpace=wrap;align=right;verticalAlign=bottom;" connectable="0" vertex="1" parent="SL3OJ4g4mQe82jDkw0CZ-362">
          <mxGeometry x="1" relative="1" as="geometry">
            <mxPoint x="10" as="offset" />
          </mxGeometry>
        </mxCell>
        <mxCell id="SL3OJ4g4mQe82jDkw0CZ-364" value="Feedback" style="rounded=0;whiteSpace=wrap;html=1;" vertex="1" parent="1">
          <mxGeometry x="1922.24" y="1830.56" width="120" height="60" as="geometry" />
        </mxCell>
        <mxCell id="SL3OJ4g4mQe82jDkw0CZ-365" value="" style="endArrow=oval;html=1;rounded=0;exitX=0.5;exitY=0;exitDx=0;exitDy=0;endFill=0;" edge="1" parent="1" target="SL3OJ4g4mQe82jDkw0CZ-366">
          <mxGeometry width="50" height="50" relative="1" as="geometry">
            <mxPoint x="1952.24" y="1830.56" as="sourcePoint" />
            <mxPoint x="1952.24" y="1780.56" as="targetPoint" />
          </mxGeometry>
        </mxCell>
        <mxCell id="SL3OJ4g4mQe82jDkw0CZ-366" value="&lt;font style=&quot;font-size: 7px;&quot;&gt;Stelle&lt;/font&gt;" style="text;html=1;strokeColor=none;fillColor=none;align=center;verticalAlign=middle;whiteSpace=wrap;rounded=0;" vertex="1" parent="1">
          <mxGeometry x="1922.24" y="1770.56" width="60" height="30" as="geometry" />
        </mxCell>
        <mxCell id="SL3OJ4g4mQe82jDkw0CZ-367" value="" style="endArrow=oval;html=1;rounded=0;exitX=0.417;exitY=0;exitDx=0;exitDy=0;endFill=0;exitPerimeter=0;" edge="1" parent="1" source="SL3OJ4g4mQe82jDkw0CZ-364" target="SL3OJ4g4mQe82jDkw0CZ-368">
          <mxGeometry width="50" height="50" relative="1" as="geometry">
            <mxPoint x="1972.24" y="1810.56" as="sourcePoint" />
            <mxPoint x="1972.24" y="1760.56" as="targetPoint" />
          </mxGeometry>
        </mxCell>
        <mxCell id="SL3OJ4g4mQe82jDkw0CZ-368" value="&lt;font style=&quot;font-size: 7px;&quot;&gt;Commento&lt;br&gt;&lt;/font&gt;" style="text;html=1;strokeColor=none;fillColor=none;align=center;verticalAlign=middle;whiteSpace=wrap;rounded=0;" vertex="1" parent="1">
          <mxGeometry x="1942.24" y="1740.56" width="60" height="30" as="geometry" />
        </mxCell>
        <mxCell id="SL3OJ4g4mQe82jDkw0CZ-369" value="" style="endArrow=oval;html=1;rounded=0;exitX=0.5;exitY=0;exitDx=0;exitDy=0;endFill=1;fontColor=#FFFFFF;strokeColor=#000000;labelBackgroundColor=#757575;" edge="1" parent="1" target="SL3OJ4g4mQe82jDkw0CZ-370">
          <mxGeometry width="50" height="50" relative="1" as="geometry">
            <mxPoint x="1992.24" y="1830.56" as="sourcePoint" />
            <mxPoint x="1992.24" y="1780.56" as="targetPoint" />
          </mxGeometry>
        </mxCell>
        <mxCell id="SL3OJ4g4mQe82jDkw0CZ-370" value="&lt;font style=&quot;font-size: 7px;&quot;&gt;ID_Tratta&lt;br&gt;&lt;/font&gt;" style="text;html=1;strokeColor=none;fillColor=none;align=center;verticalAlign=middle;whiteSpace=wrap;rounded=0;" vertex="1" parent="1">
          <mxGeometry x="1962.24" y="1770.56" width="60" height="30" as="geometry" />
        </mxCell>
        <mxCell id="SL3OJ4g4mQe82jDkw0CZ-371" value="" style="endArrow=oval;html=1;rounded=0;exitX=0.417;exitY=0;exitDx=0;exitDy=0;endFill=1;exitPerimeter=0;" edge="1" parent="1" target="SL3OJ4g4mQe82jDkw0CZ-372">
          <mxGeometry width="50" height="50" relative="1" as="geometry">
            <mxPoint x="1932.24" y="1830.56" as="sourcePoint" />
            <mxPoint x="1932.24" y="1760.56" as="targetPoint" />
          </mxGeometry>
        </mxCell>
        <mxCell id="SL3OJ4g4mQe82jDkw0CZ-372" value="&lt;font style=&quot;font-size: 7px;&quot;&gt;ID_Feedback&lt;/font&gt;" style="text;html=1;strokeColor=none;fillColor=none;align=center;verticalAlign=middle;whiteSpace=wrap;rounded=0;" vertex="1" parent="1">
          <mxGeometry x="1902.24" y="1740.56" width="60" height="30" as="geometry" />
        </mxCell>
        <mxCell id="SL3OJ4g4mQe82jDkw0CZ-373" value="" style="shape=waypoint;sketch=0;fillStyle=solid;size=6;pointerEvents=1;points=[];fillColor=none;resizable=0;rotatable=0;perimeter=centerPerimeter;snapToPoint=1;strokeColor=#8F8F8F;" vertex="1" parent="1">
          <mxGeometry x="1982.24" y="1790.56" width="20" height="20" as="geometry" />
        </mxCell>
        <mxCell id="SL3OJ4g4mQe82jDkw0CZ-374" value="" style="endArrow=oval;html=1;rounded=0;exitX=0.417;exitY=0;exitDx=0;exitDy=0;endFill=0;exitPerimeter=0;" edge="1" parent="1" target="SL3OJ4g4mQe82jDkw0CZ-375">
          <mxGeometry width="50" height="50" relative="1" as="geometry">
            <mxPoint x="2012.24" y="1830.56" as="sourcePoint" />
            <mxPoint x="2012.24" y="1760.56" as="targetPoint" />
          </mxGeometry>
        </mxCell>
        <mxCell id="SL3OJ4g4mQe82jDkw0CZ-375" value="&lt;font style=&quot;font-size: 7px;&quot;&gt;Data&lt;br&gt;&lt;/font&gt;" style="text;html=1;strokeColor=none;fillColor=none;align=center;verticalAlign=middle;whiteSpace=wrap;rounded=0;" vertex="1" parent="1">
          <mxGeometry x="1982.24" y="1740.56" width="60" height="30" as="geometry" />
        </mxCell>
        <mxCell id="SL3OJ4g4mQe82jDkw0CZ-388" value="" style="endArrow=none;html=1;rounded=0;exitX=0;exitY=0.75;exitDx=0;exitDy=0;entryX=0.5;entryY=0;entryDx=0;entryDy=0;" edge="1" parent="1" source="SL3OJ4g4mQe82jDkw0CZ-14" target="SL3OJ4g4mQe82jDkw0CZ-390">
          <mxGeometry relative="1" as="geometry">
            <mxPoint x="1325" y="1679.44" as="sourcePoint" />
            <mxPoint x="1650" y="1770" as="targetPoint" />
            <Array as="points">
              <mxPoint x="1300" y="1675" />
              <mxPoint x="1300" y="1730" />
              <mxPoint x="1300" y="1760" />
              <mxPoint x="1500" y="1760" />
              <mxPoint x="1700" y="1760" />
              <mxPoint x="1815" y="1760" />
            </Array>
          </mxGeometry>
        </mxCell>
        <mxCell id="SL3OJ4g4mQe82jDkw0CZ-389" value="1,N" style="resizable=0;html=1;whiteSpace=wrap;align=right;verticalAlign=bottom;" connectable="0" vertex="1" parent="SL3OJ4g4mQe82jDkw0CZ-388">
          <mxGeometry x="1" relative="1" as="geometry">
            <mxPoint x="25" as="offset" />
          </mxGeometry>
        </mxCell>
        <mxCell id="SL3OJ4g4mQe82jDkw0CZ-390" value="Lasciare" style="shape=rhombus;perimeter=rhombusPerimeter;whiteSpace=wrap;html=1;align=center;" vertex="1" parent="1">
          <mxGeometry x="1780" y="1771" width="70" height="40" as="geometry" />
        </mxCell>
        <mxCell id="SL3OJ4g4mQe82jDkw0CZ-391" value="" style="endArrow=none;html=1;rounded=0;entryX=0.5;entryY=1;entryDx=0;entryDy=0;exitX=0;exitY=0.25;exitDx=0;exitDy=0;" edge="1" parent="1" source="SL3OJ4g4mQe82jDkw0CZ-364" target="SL3OJ4g4mQe82jDkw0CZ-390">
          <mxGeometry relative="1" as="geometry">
            <mxPoint x="1600" y="1820" as="sourcePoint" />
            <mxPoint x="1760" y="1820" as="targetPoint" />
            <Array as="points">
              <mxPoint x="1815" y="1846" />
            </Array>
          </mxGeometry>
        </mxCell>
        <mxCell id="SL3OJ4g4mQe82jDkw0CZ-392" value="1,1" style="resizable=0;html=1;whiteSpace=wrap;align=right;verticalAlign=bottom;" connectable="0" vertex="1" parent="SL3OJ4g4mQe82jDkw0CZ-391">
          <mxGeometry x="1" relative="1" as="geometry">
            <mxPoint y="20" as="offset" />
          </mxGeometry>
        </mxCell>
        <mxCell id="SL3OJ4g4mQe82jDkw0CZ-396" value="Appartiene" style="shape=rhombus;perimeter=rhombusPerimeter;whiteSpace=wrap;html=1;align=center;" vertex="1" parent="1">
          <mxGeometry x="2080" y="1909.4499999999998" width="70" height="40" as="geometry" />
        </mxCell>
        <mxCell id="SL3OJ4g4mQe82jDkw0CZ-397" value="" style="endArrow=none;html=1;rounded=0;exitX=1;exitY=0.25;exitDx=0;exitDy=0;entryX=0.5;entryY=1;entryDx=0;entryDy=0;" edge="1" parent="1" source="SL3OJ4g4mQe82jDkw0CZ-319" target="SL3OJ4g4mQe82jDkw0CZ-396">
          <mxGeometry relative="1" as="geometry">
            <mxPoint x="2070" y="2009.4499999999998" as="sourcePoint" />
            <mxPoint x="2230" y="2009.4499999999998" as="targetPoint" />
            <Array as="points">
              <mxPoint x="2115" y="2004.4499999999998" />
            </Array>
          </mxGeometry>
        </mxCell>
        <mxCell id="SL3OJ4g4mQe82jDkw0CZ-398" value="0,1" style="resizable=0;html=1;whiteSpace=wrap;align=right;verticalAlign=bottom;" connectable="0" vertex="1" parent="SL3OJ4g4mQe82jDkw0CZ-397">
          <mxGeometry x="1" relative="1" as="geometry">
            <mxPoint y="20" as="offset" />
          </mxGeometry>
        </mxCell>
        <mxCell id="SL3OJ4g4mQe82jDkw0CZ-399" value="" style="endArrow=none;html=1;rounded=0;exitX=1;exitY=0.75;exitDx=0;exitDy=0;entryX=0.5;entryY=0;entryDx=0;entryDy=0;" edge="1" parent="1" source="SL3OJ4g4mQe82jDkw0CZ-364" target="SL3OJ4g4mQe82jDkw0CZ-396">
          <mxGeometry relative="1" as="geometry">
            <mxPoint x="2080" y="1869.4499999999998" as="sourcePoint" />
            <mxPoint x="2240" y="1869.4499999999998" as="targetPoint" />
            <Array as="points">
              <mxPoint x="2115" y="1875.4499999999998" />
            </Array>
          </mxGeometry>
        </mxCell>
        <mxCell id="SL3OJ4g4mQe82jDkw0CZ-400" value="1,1" style="resizable=0;html=1;whiteSpace=wrap;align=right;verticalAlign=bottom;" connectable="0" vertex="1" parent="SL3OJ4g4mQe82jDkw0CZ-399">
          <mxGeometry x="1" relative="1" as="geometry" />
        </mxCell>
        <mxCell id="SL3OJ4g4mQe82jDkw0CZ-401" value="Preferiti" style="shape=rhombus;perimeter=rhombusPerimeter;whiteSpace=wrap;html=1;align=center;" vertex="1" parent="1">
          <mxGeometry x="1650" y="2230" width="70" height="40" as="geometry" />
        </mxCell>
        <mxCell id="SL3OJ4g4mQe82jDkw0CZ-411" value="" style="endArrow=none;html=1;rounded=0;exitX=0.75;exitY=1;exitDx=0;exitDy=0;entryX=0;entryY=0.5;entryDx=0;entryDy=0;" edge="1" parent="1" source="SL3OJ4g4mQe82jDkw0CZ-262" target="SL3OJ4g4mQe82jDkw0CZ-401">
          <mxGeometry relative="1" as="geometry">
            <mxPoint x="1370" y="2220" as="sourcePoint" />
            <mxPoint x="1530" y="2220" as="targetPoint" />
            <Array as="points">
              <mxPoint x="1335" y="2250" />
            </Array>
          </mxGeometry>
        </mxCell>
        <mxCell id="SL3OJ4g4mQe82jDkw0CZ-412" value="1,N" style="resizable=0;html=1;whiteSpace=wrap;align=right;verticalAlign=bottom;" connectable="0" vertex="1" parent="SL3OJ4g4mQe82jDkw0CZ-411">
          <mxGeometry x="1" relative="1" as="geometry" />
        </mxCell>
        <mxCell id="SL3OJ4g4mQe82jDkw0CZ-413" value="" style="endArrow=none;html=1;rounded=0;entryX=1;entryY=0.5;entryDx=0;entryDy=0;exitX=1;exitY=0.5;exitDx=0;exitDy=0;" edge="1" parent="1" source="SL3OJ4g4mQe82jDkw0CZ-319" target="SL3OJ4g4mQe82jDkw0CZ-401">
          <mxGeometry relative="1" as="geometry">
            <mxPoint x="1630" y="2290" as="sourcePoint" />
            <mxPoint x="1790" y="2290" as="targetPoint" />
            <Array as="points">
              <mxPoint x="2110" y="2020" />
              <mxPoint x="2110" y="2230" />
              <mxPoint x="2110" y="2250" />
            </Array>
          </mxGeometry>
        </mxCell>
        <mxCell id="SL3OJ4g4mQe82jDkw0CZ-414" value="N,1" style="resizable=0;html=1;whiteSpace=wrap;align=right;verticalAlign=bottom;" connectable="0" vertex="1" parent="SL3OJ4g4mQe82jDkw0CZ-413">
          <mxGeometry x="1" relative="1" as="geometry">
            <mxPoint x="17" as="offset" />
          </mxGeometry>
        </mxCell>
        <mxCell id="SL3OJ4g4mQe82jDkw0CZ-417" value="" style="endArrow=none;html=1;rounded=0;entryX=1;entryY=0.5;entryDx=0;entryDy=0;exitX=0.029;exitY=0.341;exitDx=0;exitDy=0;exitPerimeter=0;" edge="1" parent="1" source="SL3OJ4g4mQe82jDkw0CZ-247" target="SL3OJ4g4mQe82jDkw0CZ-353">
          <mxGeometry relative="1" as="geometry">
            <mxPoint x="1410" y="1990" as="sourcePoint" />
            <mxPoint x="1570" y="1990" as="targetPoint" />
          </mxGeometry>
        </mxCell>
        <mxCell id="SL3OJ4g4mQe82jDkw0CZ-418" value="1,1" style="resizable=0;html=1;whiteSpace=wrap;align=right;verticalAlign=bottom;" connectable="0" vertex="1" parent="SL3OJ4g4mQe82jDkw0CZ-417">
          <mxGeometry x="1" relative="1" as="geometry">
            <mxPoint x="20" y="-1" as="offset" />
          </mxGeometry>
        </mxCell>
        <mxCell id="SL3OJ4g4mQe82jDkw0CZ-419" value="Lascia" style="shape=rhombus;perimeter=rhombusPerimeter;whiteSpace=wrap;html=1;align=center;" vertex="1" parent="1">
          <mxGeometry x="2134.49" y="2030" width="70" height="40" as="geometry" />
        </mxCell>
        <mxCell id="SL3OJ4g4mQe82jDkw0CZ-422" value="" style="endArrow=none;html=1;rounded=0;exitX=0.5;exitY=1;exitDx=0;exitDy=0;entryX=0.5;entryY=1;entryDx=0;entryDy=0;" edge="1" parent="1" source="SL3OJ4g4mQe82jDkw0CZ-262" target="SL3OJ4g4mQe82jDkw0CZ-419">
          <mxGeometry relative="1" as="geometry">
            <mxPoint x="1390" y="2290" as="sourcePoint" />
            <mxPoint x="1550" y="2260" as="targetPoint" />
            <Array as="points">
              <mxPoint x="1305" y="2260" />
              <mxPoint x="1370" y="2260" />
              <mxPoint x="1370" y="2280" />
              <mxPoint x="1610" y="2280" />
              <mxPoint x="1730" y="2280" />
              <mxPoint x="2170" y="2280" />
            </Array>
          </mxGeometry>
        </mxCell>
        <mxCell id="SL3OJ4g4mQe82jDkw0CZ-423" value="1,N" style="resizable=0;html=1;whiteSpace=wrap;align=right;verticalAlign=bottom;" connectable="0" vertex="1" parent="SL3OJ4g4mQe82jDkw0CZ-422">
          <mxGeometry x="1" relative="1" as="geometry">
            <mxPoint y="20" as="offset" />
          </mxGeometry>
        </mxCell>
        <mxCell id="SL3OJ4g4mQe82jDkw0CZ-424" value="" style="endArrow=none;html=1;rounded=0;exitX=1;exitY=0.25;exitDx=0;exitDy=0;entryX=0.5;entryY=0;entryDx=0;entryDy=0;" edge="1" parent="1" source="SL3OJ4g4mQe82jDkw0CZ-364" target="SL3OJ4g4mQe82jDkw0CZ-419">
          <mxGeometry relative="1" as="geometry">
            <mxPoint x="2090" y="1830" as="sourcePoint" />
            <mxPoint x="2250" y="1830" as="targetPoint" />
            <Array as="points">
              <mxPoint x="2170" y="1846" />
            </Array>
          </mxGeometry>
        </mxCell>
        <mxCell id="SL3OJ4g4mQe82jDkw0CZ-425" value="1,1" style="resizable=0;html=1;whiteSpace=wrap;align=right;verticalAlign=bottom;" connectable="0" vertex="1" parent="SL3OJ4g4mQe82jDkw0CZ-424">
          <mxGeometry x="1" relative="1" as="geometry" />
        </mxCell>
        <mxCell id="SL3OJ4g4mQe82jDkw0CZ-426" value="Pagare" style="shape=rhombus;perimeter=rhombusPerimeter;whiteSpace=wrap;html=1;align=center;" vertex="1" parent="1">
          <mxGeometry x="1710" y="2049.45" width="70" height="40" as="geometry" />
        </mxCell>
        <mxCell id="SL3OJ4g4mQe82jDkw0CZ-427" value="" style="endArrow=none;html=1;rounded=0;entryX=0;entryY=0.5;entryDx=0;entryDy=0;exitX=1;exitY=0.25;exitDx=0;exitDy=0;" edge="1" parent="1" source="SL3OJ4g4mQe82jDkw0CZ-285" target="SL3OJ4g4mQe82jDkw0CZ-426">
          <mxGeometry relative="1" as="geometry">
            <mxPoint x="1470" y="2330" as="sourcePoint" />
            <mxPoint x="1630" y="2330" as="targetPoint" />
            <Array as="points">
              <mxPoint x="1525" y="2355" />
              <mxPoint x="1525" y="2070" />
            </Array>
          </mxGeometry>
        </mxCell>
        <mxCell id="SL3OJ4g4mQe82jDkw0CZ-428" value="1,N" style="resizable=0;html=1;whiteSpace=wrap;align=right;verticalAlign=bottom;" connectable="0" vertex="1" parent="SL3OJ4g4mQe82jDkw0CZ-427">
          <mxGeometry x="1" relative="1" as="geometry" />
        </mxCell>
        <mxCell id="SL3OJ4g4mQe82jDkw0CZ-429" value="" style="endArrow=none;html=1;rounded=0;entryX=0;entryY=0.75;entryDx=0;entryDy=0;exitX=1;exitY=0.5;exitDx=0;exitDy=0;" edge="1" parent="1" source="SL3OJ4g4mQe82jDkw0CZ-426" target="SL3OJ4g4mQe82jDkw0CZ-319">
          <mxGeometry relative="1" as="geometry">
            <mxPoint x="1680" y="2110" as="sourcePoint" />
            <mxPoint x="1840" y="2110" as="targetPoint" />
            <Array as="points">
              <mxPoint x="1870" y="2070" />
              <mxPoint x="1870" y="2034" />
            </Array>
          </mxGeometry>
        </mxCell>
        <mxCell id="SL3OJ4g4mQe82jDkw0CZ-430" value="1,1" style="resizable=0;html=1;whiteSpace=wrap;align=right;verticalAlign=bottom;" connectable="0" vertex="1" parent="SL3OJ4g4mQe82jDkw0CZ-429">
          <mxGeometry x="1" relative="1" as="geometry">
            <mxPoint x="-122" y="35" as="offset" />
          </mxGeometry>
        </mxCell>
        <mxCell id="SL3OJ4g4mQe82jDkw0CZ-431" value="" style="endArrow=none;html=1;rounded=0;entryX=0;entryY=0.5;entryDx=0;entryDy=0;exitX=1;exitY=0.5;exitDx=0;exitDy=0;" edge="1" parent="1" source="SL3OJ4g4mQe82jDkw0CZ-122" target="SL3OJ4g4mQe82jDkw0CZ-189">
          <mxGeometry relative="1" as="geometry">
            <mxPoint x="2010" y="1540" as="sourcePoint" />
            <mxPoint x="2170" y="1540" as="targetPoint" />
          </mxGeometry>
        </mxCell>
        <mxCell id="SL3OJ4g4mQe82jDkw0CZ-432" value="1,1" style="resizable=0;html=1;whiteSpace=wrap;align=right;verticalAlign=bottom;" connectable="0" vertex="1" parent="SL3OJ4g4mQe82jDkw0CZ-431">
          <mxGeometry x="1" relative="1" as="geometry" />
        </mxCell>
      </root>
    </mxGraphModel>
  </diagram>
</mxfile>
